<svg width="283" height="280" viewBox="0 0 283 280" fill="none" xmlns="http://www.w3.org/2000/svg">
<path fill-rule="evenodd" clip-rule="evenodd" d="M2.61896 143.996C-1.85093 128.451 0.384013 113.349 7.08885 99.1365C20.0515 108.464 29.4383 120.456 33.4612 136.001C37.9311 151.547 35.6961 166.648 28.9913 180.861C16.4756 171.534 6.64186 159.542 2.61896 143.996Z" fill="#8DBE22"/>
<path fill-rule="evenodd" clip-rule="evenodd" d="M248.91 143.996C244.44 128.451 246.675 113.349 253.38 99.1365C266.343 108.464 275.729 120.456 279.752 136.001C284.222 151.547 281.987 166.648 275.282 180.861C262.32 171.534 252.933 159.542 248.91 143.996Z" fill="#8DBE22"/>
<path fill-rule="evenodd" clip-rule="evenodd" d="M137.163 2.31076C152.807 -2.13079 168.005 0.0899819 182.309 6.7523C172.922 19.6328 160.853 28.96 145.208 32.9574C129.564 37.3989 114.366 35.1782 100.062 28.5159C109.449 15.6354 121.518 6.30815 137.163 2.31076Z" fill="#8DBE22"/>
<path fill-rule="evenodd" clip-rule="evenodd" d="M137.163 247.04C152.807 242.598 168.005 244.819 182.309 251.482C172.922 264.362 160.853 273.689 145.208 277.687C129.564 282.128 114.366 279.907 100.062 273.245C109.449 260.365 121.518 251.037 137.163 247.04Z" fill="#8DBE22"/>
<path fill-rule="evenodd" clip-rule="evenodd" d="M225.219 36.9548C176.498 76.4846 105.873 76.4846 57.1514 36.9548L68.7731 25.4068C111.237 58.7184 171.134 58.7184 213.598 25.4068L225.219 36.9548Z" fill="#848488"/>
<path fill-rule="evenodd" clip-rule="evenodd" d="M37.9308 56.4976C77.7129 104.91 77.7129 175.087 37.9308 223.5L26.3091 211.952C59.8333 169.757 59.8333 110.24 26.3091 68.0457L37.9308 56.4976Z" fill="#848488"/>
<path fill-rule="evenodd" clip-rule="evenodd" d="M57.1514 242.598C105.873 203.069 176.498 203.069 225.219 242.598L213.598 254.146C171.134 220.835 111.237 220.835 68.7731 254.146L57.1514 242.598Z" fill="#848488"/>
<path fill-rule="evenodd" clip-rule="evenodd" d="M244.887 223.5C205.105 175.087 205.105 104.91 244.887 56.4976L256.509 68.0457C222.985 110.24 222.985 169.757 256.509 211.952L244.887 223.5Z" fill="#848488"/>
</svg>
