<svg width="48" height="48" viewBox="0 0 48 48" fill="none" xmlns="http://www.w3.org/2000/svg">
<g clip-path="url(#clip0)">
<path d="M44.3312 43.1668L47.7654 39.7326C47.9932 39.5035 48.061 39.16 47.9374 38.8615C47.8139 38.563 47.523 38.3679 47.2 38.3668H40.8V35.1668C40.7992 34.2835 40.0833 33.5677 39.2 33.5668H8.79999C7.91668 33.5676 7.2009 34.2835 7.19996 35.1668V38.3668H0.799916C0.476759 38.3678 0.185946 38.5629 0.0623829 38.8614C-0.0611798 39.1599 0.00669534 39.5035 0.234508 39.7326L3.66867 43.1668L0.234508 46.6009C0.00669534 46.83 -0.0610861 47.1735 0.0624767 47.472C0.186039 47.7705 0.476852 47.9656 0.799916 47.9667H15.1999C15.6418 47.9667 15.9999 47.6086 15.9999 47.1667V43.1667H32V47.1667C32 47.6086 32.3581 47.9667 32.7999 47.9667H47.2C47.5231 47.9657 47.8139 47.7706 47.9375 47.4721C48.0611 47.1735 47.9932 46.83 47.7654 46.6009L44.3312 43.1668ZM14.4 46.3668H2.73117L5.36555 43.7324C5.51564 43.5824 5.59993 43.379 5.59993 43.1668C5.59993 42.9546 5.51564 42.7512 5.36555 42.6012L2.73117 39.9668H7.19996V41.5669C7.2008 42.4502 7.91668 43.1659 8.79999 43.1669H14.4V46.3668ZM8.79999 41.5668V35.1667H39.2001L39.2008 39.1631L39.2001 39.1668L39.2008 39.1704L39.2013 41.5668H8.79999ZM33.6 46.3668V43.1668H39.2C40.0833 43.1659 40.7991 42.4501 40.8 41.5668V39.9667H45.2688L42.6344 42.6011C42.4843 42.7511 42.4001 42.9545 42.4001 43.1667C42.4001 43.3789 42.4843 43.5823 42.6344 43.7323L45.2688 46.3667H33.6V46.3668Z" fill="#848488"/>
<path d="M3.13887 25.507L2.45609 29.4296C2.40396 29.7291 2.52612 30.0323 2.77128 30.212C3.01643 30.3918 3.3424 30.4169 3.61231 30.2769L7.19985 28.4179L10.7874 30.2769C11.0573 30.4169 11.3832 30.3918 11.6284 30.212C11.8737 30.0323 11.9958 29.7291 11.9436 29.4296L11.2608 25.5069L14.1542 22.7272C14.3747 22.5152 14.4552 22.1962 14.3613 21.905C14.2676 21.6139 14.016 21.4018 13.7132 21.3584L9.70542 20.7842L7.91516 17.2084C7.76488 16.9566 7.49319 16.8024 7.19994 16.8024C6.90669 16.8024 6.635 16.9566 6.48472 17.2084L4.69447 20.7842L0.686649 21.3584C0.383929 21.4018 0.132304 21.6139 0.0385536 21.905C-0.0551966 22.1961 0.0251473 22.5152 0.245648 22.7272L3.13887 25.507ZM5.33535 22.3085C5.59494 22.2715 5.81994 22.1095 5.93732 21.8749L7.19985 19.3534L8.46238 21.8749C8.57976 22.1095 8.80467 22.2715 9.06435 22.3085L11.8632 22.7097L9.84557 24.648C9.65385 24.8324 9.5662 25.0999 9.61157 25.3621L10.0904 28.114L7.56782 26.8066C7.3371 26.6867 7.0626 26.6867 6.83188 26.8066L4.30916 28.114L4.78803 25.3621C4.83341 25.0999 4.74575 24.8324 4.55403 24.648L2.53643 22.7097L5.33535 22.3085Z" fill="#848488"/>
<path d="M33.6382 21.905C33.5444 22.1961 33.6248 22.5152 33.8453 22.7272L36.7386 25.5069L36.0558 29.4296C36.0037 29.7291 36.1258 30.0323 36.371 30.212C36.6161 30.3918 36.9421 30.4169 37.212 30.2769L40.7996 28.4179L44.3871 30.2769C44.657 30.4169 44.9829 30.3918 45.2281 30.212C45.4734 30.0323 45.5955 29.7291 45.5433 29.4296L44.8605 25.5069L47.754 22.7272C47.9745 22.5152 48.0549 22.196 47.961 21.9049C47.8671 21.6139 47.6156 21.4018 47.313 21.3584L43.3051 20.7842L41.5149 17.2084C41.3646 16.9566 41.0929 16.8024 40.7997 16.8024C40.5064 16.8024 40.2347 16.9566 40.0844 17.2084L38.2942 20.7842L34.2864 21.3584C33.9835 21.4018 33.732 21.6139 33.6382 21.905ZM38.9351 22.3084C39.1947 22.2714 39.4197 22.1094 39.5371 21.8748L40.7997 19.3533L42.0622 21.8748C42.1796 22.1094 42.4045 22.2714 42.6642 22.3084L45.463 22.7096L43.4454 24.6479C43.2537 24.8323 43.166 25.0998 43.2114 25.362L43.6903 28.1139L41.1676 26.8065C40.9369 26.6866 40.6624 26.6866 40.4317 26.8065L37.9091 28.1139L38.3879 25.362C38.4333 25.0998 38.3456 24.8323 38.1539 24.6479L36.1363 22.7096L38.9351 22.3084Z" fill="#848488"/>
<path d="M17.5333 13.8221L16.2907 20.6229C16.2363 20.9204 16.3543 21.2231 16.5957 21.4052C16.8371 21.5874 17.1605 21.6178 17.4316 21.4838L23.9997 18.2424L30.5677 21.4838C30.8388 21.6178 31.1624 21.5874 31.4038 21.4052C31.6452 21.2231 31.7632 20.9204 31.7088 20.6229L30.4662 13.8221L35.74 8.99627C35.9689 8.78674 36.056 8.46367 35.9634 8.16742C35.8709 7.87127 35.6154 7.65536 35.3079 7.61355L27.977 6.61314L24.7079 0.394313C24.556 0.149157 24.2881 0 23.9997 0C23.7113 0 23.4434 0.149157 23.2915 0.394313L20.0223 6.61304L12.6914 7.61345C12.3839 7.65536 12.1285 7.87136 12.0359 8.16752C11.9434 8.46367 12.0305 8.78674 12.2594 8.99627L17.5333 13.8221ZM20.6469 8.14277C20.9031 8.10798 21.1267 7.95133 21.2469 7.72248L23.9997 2.48569L26.7525 7.72239C26.8727 7.95133 27.0962 8.10789 27.3525 8.14267L33.4006 8.96814L29.0596 12.9404C28.8566 13.1264 28.7633 13.4036 28.8127 13.6744L29.8487 19.3447L24.3538 16.633C24.1307 16.5225 23.869 16.5225 23.646 16.633L18.1511 19.3447L19.187 13.6744C19.2363 13.4036 19.1431 13.1263 18.9402 12.9404L14.5991 8.96824L20.6469 8.14277Z" fill="#848488"/>
</g>
<defs>
<clipPath id="clip0">
<rect width="48" height="48" fill="white"/>
</clipPath>
</defs>
</svg>
