<svg width="64" height="64" viewBox="0 0 64 64" fill="none" xmlns="http://www.w3.org/2000/svg">
<path d="M50 16H48C47.7348 16 47.4804 15.8946 47.2929 15.7071C47.1054 15.5196 47 15.2652 47 15C47 14.7348 47.1054 14.4804 47.2929 14.2929C47.4804 14.1054 47.7348 14 48 14H50C50.2652 14 50.5196 14.1054 50.7071 14.2929C50.8946 14.4804 51 14.7348 51 15C51 15.2652 50.8946 15.5196 50.7071 15.7071C50.5196 15.8946 50.2652 16 50 16Z" fill="white"/>
<path d="M44 16H42C41.7348 16 41.4804 15.8946 41.2929 15.7071C41.1054 15.5196 41 15.2652 41 15C41 14.7348 41.1054 14.4804 41.2929 14.2929C41.4804 14.1054 41.7348 14 42 14H44C44.2652 14 44.5196 14.1054 44.7071 14.2929C44.8946 14.4804 45 14.7348 45 15C45 15.2652 44.8946 15.5196 44.7071 15.7071C44.5196 15.8946 44.2652 16 44 16Z" fill="white"/>
<path d="M56 16H54C53.7348 16 53.4804 15.8946 53.2929 15.7071C53.1054 15.5196 53 15.2652 53 15C53 14.7348 53.1054 14.4804 53.2929 14.2929C53.4804 14.1054 53.7348 14 54 14H56C56.2652 14 56.5196 14.1054 56.7071 14.2929C56.8946 14.4804 57 14.7348 57 15C57 15.2652 56.8946 15.5196 56.7071 15.7071C56.5196 15.8946 56.2652 16 56 16Z" fill="white"/>
<path d="M20 30C20.2652 30 20.5196 29.8946 20.7071 29.7071C20.8946 29.5196 21 29.2652 21 29V28C21 27.7348 20.8946 27.4804 20.7071 27.2929C20.5196 27.1054 20.2652 27 20 27C19.7348 27 19.4804 27.1054 19.2929 27.2929C19.1054 27.4804 19 27.7348 19 28V29C19 29.2652 19.1054 29.5196 19.2929 29.7071C19.4804 29.8946 19.7348 30 20 30Z" fill="white"/>
<path d="M26 30C26.2652 30 26.5196 29.8946 26.7071 29.7071C26.8946 29.5196 27 29.2652 27 29V28C27 27.7348 26.8946 27.4804 26.7071 27.2929C26.5196 27.1054 26.2652 27 26 27C25.7348 27 25.4804 27.1054 25.2929 27.2929C25.1054 27.4804 25 27.7348 25 28V29C25 29.2652 25.1054 29.5196 25.2929 29.7071C25.4804 29.8946 25.7348 30 26 30Z" fill="white"/>
<path d="M36.07 44.94L30.89 43.44C30.9806 43.2528 31.0119 43.0424 30.9797 42.8369C30.9476 42.6314 30.8535 42.4406 30.71 42.29L28.71 40.29C28.5188 40.1078 28.2641 40.0073 28 40.01V38.24C28.9363 37.4917 29.6921 36.5422 30.2114 35.462C30.7307 34.3818 31.0003 33.1986 31 32H31.5C32.4283 32 33.3185 31.6313 33.9749 30.9749C34.6312 30.3185 35 29.4283 35 28.5C34.9978 27.637 34.6732 26.8061 34.09 26.17L34.55 21.5C34.623 20.8135 34.5522 20.1193 34.3421 19.4616C34.1321 18.8039 33.7874 18.1972 33.33 17.68C32.5519 16.8141 31.4998 16.2422 30.35 16.06C29.7891 14.848 28.8932 13.8218 27.7681 13.1024C26.6429 12.383 25.3355 12.0005 24 12H15C14.7348 12 14.4804 12.1054 14.2929 12.2929C14.1054 12.4804 14 12.7348 14 13V16C14 16.21 14.02 16.4 14.04 16.61C13.1678 17.0722 12.4541 17.785 11.9907 18.6566C11.5273 19.5281 11.3355 20.5185 11.44 21.5L11.91 26.17C11.3268 26.8061 11.0022 27.637 11 28.5C11 29.4283 11.3687 30.3185 12.0251 30.9749C12.6815 31.6313 13.5717 32 14.5 32H15C14.9997 33.1986 15.2693 34.3818 15.7886 35.462C16.3079 36.5422 17.0637 37.4917 18 38.24V40.01C17.7359 40.0073 17.4812 40.1078 17.29 40.29L15.29 42.29C15.1465 42.4406 15.0524 42.6314 15.0203 42.8369C14.9881 43.0424 15.0194 43.2528 15.11 43.44L9.93 44.94C7.64723 45.6147 5.64285 47.0075 4.21432 48.9116C2.7858 50.8157 2.00927 53.1296 2 55.51V61C2 61.2652 2.10536 61.5196 2.29289 61.7071C2.48043 61.8946 2.73478 62 3 62H43C43.2652 62 43.5196 61.8946 43.7071 61.7071C43.8946 61.5196 44 61.2652 44 61V55.51C43.9907 53.1296 43.2142 50.8157 41.7857 48.9116C40.3572 47.0075 38.3528 45.6147 36.07 44.94ZM28.74 43.15L26.8 46.39L24.61 44.2L27.85 42.26L28.74 43.15ZM23 42.83L19.99 41.03C19.99 41.02 20 41.01 20 41V39.41C21.9226 40.1967 24.0774 40.1967 26 39.41V41C26 41.01 26.01 41.02 26.01 41.03L23 42.83ZM24.49 46.91L24.22 48H21.78L21.51 46.91L23 45.41L24.49 46.91ZM31.5 30H31V27H31.5C31.8978 27 32.2794 27.158 32.5607 27.4393C32.842 27.7206 33 28.1022 33 28.5C33 28.8978 32.842 29.2794 32.5607 29.5607C32.2794 29.842 31.8978 30 31.5 30ZM16 14H24C25.0329 14.0006 26.0402 14.321 26.8836 14.9173C27.727 15.5136 28.365 16.3564 28.71 17.33C28.7762 17.5225 28.8999 17.69 29.0645 17.8099C29.229 17.9297 29.4265 17.9961 29.63 18C30.0453 18.0053 30.455 18.0973 30.8327 18.27C31.2105 18.4427 31.5481 18.6923 31.8238 19.0029C32.0996 19.3135 32.3075 19.6782 32.4343 20.0738C32.561 20.4693 32.6039 20.887 32.56 21.3L32.19 25.07C31.9633 25.021 31.7319 24.9975 31.5 25H30.82C30.6124 24.4173 30.2304 23.9126 29.7258 23.5548C29.2212 23.1969 28.6186 23.0032 28 23H23C21.298 23.002 19.6535 22.3837 18.3743 21.261C17.0951 20.1383 16.2688 18.5879 16.05 16.9C16.0178 16.6011 16.0011 16.3007 16 16V14ZM15 30H14.5C14.1022 30 13.7206 29.842 13.4393 29.5607C13.158 29.2794 13 28.8978 13 28.5C13 28.1022 13.158 27.7206 13.4393 27.4393C13.7206 27.158 14.1022 27 14.5 27H15V30ZM15.18 25H14.5C14.2681 24.9975 14.0367 25.021 13.81 25.07L13.43 21.3C13.3893 20.9056 13.4276 20.507 13.5426 20.1276C13.6577 19.7481 13.8471 19.3954 14.1 19.09C14.2024 18.9726 14.3126 18.8624 14.43 18.76C14.9783 20.4607 16.0231 21.9583 17.43 23.06C16.9188 23.1602 16.4425 23.3918 16.048 23.7319C15.6535 24.0721 15.3543 24.5091 15.18 25ZM17 32V26C17 25.7348 17.1054 25.4804 17.2929 25.2929C17.4804 25.1054 17.7348 25 18 25H28C28.2652 25 28.5196 25.1054 28.7071 25.2929C28.8946 25.4804 29 25.7348 29 26V32C29 33.5913 28.3679 35.1174 27.2426 36.2426C26.1174 37.3679 24.5913 38 23 38C21.4087 38 19.8826 37.3679 18.7574 36.2426C17.6321 35.1174 17 33.5913 17 32ZM18.15 42.26L21.39 44.2L19.2 46.39L17.26 43.15L18.15 42.26ZM19.08 60H12V56C12 55.7348 11.8946 55.4804 11.7071 55.2929C11.5196 55.1054 11.2652 55 11 55C10.7348 55 10.4804 55.1054 10.2929 55.2929C10.1054 55.4804 10 55.7348 10 56V60H4V55.51C4.00862 53.5622 4.64454 51.669 5.81352 50.111C6.98249 48.5529 8.62232 47.413 10.49 46.86L16.16 45.21L18.14 48.51C18.2166 48.6428 18.3236 48.7556 18.4522 48.8391C18.5809 48.9225 18.7275 48.9743 18.88 48.99C18.9194 48.9983 18.9597 49.0016 19 49C19.2657 49.0008 19.5208 48.8965 19.71 48.71L19.86 48.56L19.99 49.08L19.08 60ZM21.09 60L21.92 50H24.08L24.91 60H21.09ZM42 60H36V56C36 55.7348 35.8946 55.4804 35.7071 55.2929C35.5196 55.1054 35.2652 55 35 55C34.7348 55 34.4804 55.1054 34.2929 55.2929C34.1054 55.4804 34 55.7348 34 56V60H26.92L26.01 49.08L26.14 48.56L26.29 48.71C26.4792 48.8965 26.7343 49.0008 27 49C27.0403 49.0016 27.0806 48.9983 27.12 48.99C27.2725 48.9743 27.4191 48.9225 27.5478 48.8391C27.6764 48.7556 27.7834 48.6428 27.86 48.51L29.84 45.21L35.51 46.86C37.3777 47.413 39.0175 48.5529 40.1865 50.111C41.3555 51.669 41.9914 53.5622 42 55.51V60Z" fill="white"/>
<path d="M48.9998 2C46.3626 1.99964 43.7876 2.80139 41.6167 4.29881C39.4458 5.79624 37.7816 7.91852 36.8452 10.3839C35.9088 12.8493 35.7443 15.5412 36.3736 18.1023C37.003 20.6633 38.3964 22.9724 40.3688 24.723L38.3998 26.2C38.2319 26.3259 38.1079 26.5015 38.0453 26.7018C37.9827 26.9022 37.9848 27.1171 38.0512 27.3162C38.1175 27.5153 38.2449 27.6885 38.4151 27.8112C38.5854 27.934 38.79 28 38.9998 28H48.9998C52.4477 28 55.7543 26.6304 58.1922 24.1924C60.6302 21.7544 61.9998 18.4478 61.9998 15C61.9998 11.5522 60.6302 8.24559 58.1922 5.80761C55.7543 3.36964 52.4477 2 48.9998 2ZM48.9998 26H41.9998L42.5998 25.55C42.7254 25.4559 42.8271 25.3335 42.8966 25.1927C42.9661 25.052 43.0015 24.8969 43 24.7399C42.9984 24.583 42.9599 24.4286 42.8876 24.2893C42.8153 24.15 42.7113 24.0296 42.5838 23.938C40.4535 22.4098 38.9391 20.1709 38.3135 17.6248C37.6879 15.0787 37.9922 12.3929 39.1717 10.0514C40.3512 7.70987 42.3282 5.86664 44.7465 4.85385C47.1648 3.84107 49.8653 3.72535 52.3614 4.52755C54.8575 5.32975 56.9849 6.9971 58.3604 9.22914C59.7359 11.4612 60.2689 14.1111 59.8633 16.7014C59.4578 19.2916 58.1405 21.6519 56.1487 23.3567C54.1569 25.0616 51.6216 25.999 48.9998 26Z" fill="white"/>
<path d="M19.7511 32.9169C19.6678 33.0185 19.6053 33.1356 19.5673 33.2613C19.5292 33.3871 19.5163 33.5192 19.5293 33.6499C19.5423 33.7807 19.581 33.9076 19.6431 34.0234C19.7051 34.1392 19.7894 34.2417 19.8911 34.3249C20.7641 35.0461 21.8573 35.4474 22.9895 35.4625C24.1218 35.4776 25.2252 35.1055 26.1171 34.4079C26.3186 34.2427 26.4476 34.0055 26.4768 33.7466C26.506 33.4878 26.433 33.2278 26.2734 33.0219C26.1138 32.816 25.8801 32.6806 25.6222 32.6443C25.3642 32.6081 25.1023 32.674 24.8921 32.8279C24.3542 33.2393 23.6936 33.458 23.0165 33.449C22.3393 33.4399 21.6849 33.2036 21.1581 32.7779C20.9531 32.6098 20.6897 32.5301 20.4259 32.5561C20.162 32.5822 19.9193 32.712 19.7511 32.9169Z" fill="white"/>
</svg>
