<svg width="25" height="24" viewBox="0 0 25 24" fill="none" xmlns="http://www.w3.org/2000/svg">
<path d="M13.748 7C13.748 6.58579 13.4123 6.25 12.998 6.25C12.5838 6.25 12.248 6.58579 12.248 7V12C12.248 12.2586 12.3813 12.4989 12.6005 12.636L15.6005 14.511C15.9518 14.7305 16.4145 14.6238 16.634 14.2725C16.8536 13.9212 16.7468 13.4585 16.3955 13.239L13.748 11.5843V7Z" fill="#8DBE22"/>
<path fill-rule="evenodd" clip-rule="evenodd" d="M12.998 3.25C8.16556 3.25 4.24805 7.16751 4.24805 12C4.24805 16.8325 8.16556 20.75 12.998 20.75C17.8305 20.75 21.748 16.8325 21.748 12C21.748 7.16751 17.8305 3.25 12.998 3.25ZM5.74805 12C5.74805 7.99594 8.99398 4.75 12.998 4.75C17.0021 4.75 20.248 7.99594 20.248 12C20.248 16.0041 17.0021 19.25 12.998 19.25C8.99398 19.25 5.74805 16.0041 5.74805 12Z" fill="#8DBE22"/>
</svg>
