<svg width="24" height="24" viewBox="0 0 24 24" fill="none" xmlns="http://www.w3.org/2000/svg">
<path d="M12.9399 11.9999L17.7999 7.13993C17.9091 7.0124 17.9662 6.84835 17.9597 6.68056C17.9532 6.51278 17.8837 6.35362 17.7649 6.23489C17.6462 6.11616 17.4871 6.0466 17.3193 6.04012C17.1515 6.03364 16.9874 6.09071 16.8599 6.19993L11.9999 11.0599L7.1399 6.19326C7.01237 6.08405 6.84832 6.02698 6.68053 6.03346C6.51275 6.03994 6.35359 6.10949 6.23486 6.22822C6.11613 6.34695 6.04657 6.50611 6.04009 6.67389C6.03361 6.84168 6.09068 7.00573 6.1999 7.13326L11.0599 11.9999L6.19323 16.8599C6.12345 16.9197 6.06677 16.9932 6.02675 17.076C5.98674 17.1587 5.96425 17.2487 5.9607 17.3406C5.95716 17.4324 5.97263 17.5239 6.00614 17.6095C6.03966 17.695 6.0905 17.7727 6.15547 17.8377C6.22044 17.9027 6.29814 17.9535 6.38369 17.987C6.46924 18.0205 6.56079 18.036 6.6526 18.0325C6.74442 18.0289 6.8345 18.0064 6.91721 17.9664C6.99992 17.9264 7.07347 17.8697 7.13323 17.7999L11.9999 12.9399L16.8599 17.7999C16.9874 17.9091 17.1515 17.9662 17.3193 17.9597C17.4871 17.9533 17.6462 17.8837 17.7649 17.765C17.8837 17.6462 17.9532 17.4871 17.9597 17.3193C17.9662 17.1515 17.9091 16.9875 17.7999 16.8599L12.9399 11.9999Z" fill="#848488"/>
</svg>
