<svg width="48" height="48" viewBox="0 0 48 48" fill="none" xmlns="http://www.w3.org/2000/svg">
<path d="M24 35.875C23.4825 35.875 23.0625 36.295 23.0625 36.8125C23.0625 37.33 23.4825 37.75 24 37.75C24.5175 37.75 24.9375 37.33 24.9375 36.8125C24.9375 36.295 24.5175 35.875 24 35.875Z" fill="#848488"/>
<path d="M43.9769 5.44094C41.6699 4.51178 38.6705 4 35.5312 4C32.392 4 29.3926 4.51178 27.0856 5.44094C25.7223 5.99003 24.6814 6.66109 24 7.41409C23.3186 6.66109 22.2777 5.99012 20.9144 5.44103C18.6074 4.51178 15.608 4 12.4688 4C9.32953 4 6.33009 4.51178 4.02309 5.44094C1.42875 6.48587 0 7.97181 0 9.625V32.125C0 33.7782 1.42875 35.2641 4.02309 36.3091C6.16875 37.1733 8.91356 37.6758 11.8125 37.7419V37.75C11.8125 40.9568 17.052 43.375 24 43.375C30.948 43.375 36.1875 40.9568 36.1875 37.75V37.7419C39.0864 37.6758 41.8312 37.1733 43.9769 36.3091C46.5713 35.2641 48 33.7782 48 32.125V9.625C48 7.97181 46.5713 6.48587 43.9769 5.44094ZM46.125 26.5C46.125 27.3003 45.0335 28.2371 43.2764 28.9448C41.3747 29.7108 38.8215 30.1742 36.1875 30.2407V26.5C36.1875 26.4973 36.1873 26.4946 36.1873 26.4919C39.0863 26.4258 41.8312 25.9233 43.977 25.0591C44.8192 24.7199 45.5376 24.334 46.1251 23.9112L46.125 26.5ZM23.0625 15.25C23.0625 16.0503 21.971 16.9871 20.2139 17.6948C18.1545 18.5243 15.3315 19 12.4688 19C9.606 19 6.783 18.5243 4.72359 17.6948C2.96653 16.9871 1.875 16.0503 1.875 15.25V12.6612C2.46253 13.084 3.18094 13.4699 4.02309 13.8091C6.33009 14.7382 9.32953 15.25 12.4688 15.25C15.608 15.25 18.6074 14.7382 20.9144 13.8091C21.7566 13.4699 22.475 13.084 23.0625 12.6612V15.25ZM4.02309 19.4341C6.33009 20.3632 9.32953 20.875 12.4688 20.875C15.608 20.875 18.6074 20.3632 20.9144 19.4341C21.7566 19.0949 22.475 18.709 23.0625 18.2862V20.8916C20.6372 20.9737 18.3113 21.3718 16.43 22.0343C14.5431 22.6989 13.1853 23.5851 12.4469 24.6247C9.59166 24.6223 6.77775 24.1472 4.72359 23.3198C2.96653 22.6121 1.875 21.6753 1.875 20.875V18.2862C2.46253 18.709 3.18094 19.0949 4.02309 19.4341ZM1.875 23.9112C2.46253 24.334 3.18094 24.7199 4.02309 25.0591C6.16884 25.9233 8.91375 26.4258 11.8128 26.4919C11.8128 26.4947 11.8126 26.4974 11.8126 26.5V30.2407C9.1785 30.1742 6.62541 29.7108 4.72369 28.9448C2.96653 28.2371 1.875 27.3003 1.875 26.5V23.9112ZM13.7867 26.0394C14.4815 24.4225 18.4916 22.75 24 22.75C29.5084 22.75 33.5185 24.4225 34.2126 26.0375C34.2799 26.1951 34.3125 26.3463 34.3125 26.5C34.3125 27.3242 33.2963 28.2398 31.5942 28.949C29.5808 29.788 26.8838 30.25 24 30.25C21.1162 30.25 18.4192 29.788 16.4058 28.949C14.7037 28.2398 13.6875 27.3242 13.6875 26.5C13.6875 26.3463 13.7202 26.1951 13.7867 26.0394ZM46.125 20.875C46.125 21.6753 45.0335 22.6121 43.2764 23.3198C41.2223 24.1472 38.4085 24.6223 35.5534 24.6247C34.8156 23.5857 33.4576 22.6991 31.57 22.0343C29.6888 21.3717 27.3628 20.9737 24.9375 20.8916V18.2862C25.525 18.709 26.2434 19.0949 27.0856 19.4341C29.3926 20.3632 32.392 20.875 35.5312 20.875C38.6705 20.875 41.6699 20.3632 43.9769 19.4341C44.8191 19.0949 45.5375 18.709 46.125 18.2862V20.875ZM46.125 15.25C46.125 16.0503 45.0335 16.9871 43.2764 17.6948C41.217 18.5243 38.394 19 35.5312 19C32.6685 19 29.8455 18.5243 27.7861 17.6948C26.029 16.9871 24.9375 16.0503 24.9375 15.25V12.6612C25.525 13.084 26.2434 13.4699 27.0856 13.8091C29.3926 14.7382 32.392 15.25 35.5312 15.25C38.6705 15.25 41.6699 14.7382 43.9769 13.8091C44.8191 13.4699 45.5375 13.084 46.125 12.6612V15.25ZM27.7861 7.18019C29.8455 6.35069 32.6685 5.875 35.5312 5.875C38.394 5.875 41.217 6.35069 43.2764 7.18019C45.0335 7.88791 46.125 8.82466 46.125 9.625C46.125 10.4253 45.0335 11.3621 43.2764 12.0698C41.217 12.8993 38.394 13.375 35.5312 13.375C32.6685 13.375 29.8455 12.8993 27.7861 12.0698C26.029 11.3621 24.9375 10.4253 24.9375 9.625C24.9375 8.82466 26.029 7.88791 27.7861 7.18019ZM4.72359 7.18019C6.783 6.35069 9.606 5.875 12.4688 5.875C15.3315 5.875 18.1545 6.35069 20.2139 7.18019C21.971 7.88791 23.0625 8.82466 23.0625 9.625C23.0625 10.4253 21.971 11.3621 20.2139 12.0698C18.1545 12.8993 15.3315 13.375 12.4688 13.375C9.606 13.375 6.783 12.8993 4.72359 12.0698C2.96653 11.3621 1.875 10.4253 1.875 9.625C1.875 8.82466 2.96653 7.88791 4.72359 7.18019ZM4.72359 34.5698C2.96653 33.8621 1.875 32.9253 1.875 32.125V29.5362C2.46253 29.959 3.18094 30.3449 4.02309 30.6841C6.16875 31.5483 8.91356 32.0508 11.8125 32.1169V35.8658C9.17841 35.7992 6.62531 35.3358 4.72359 34.5698ZM31.5942 40.199C29.5808 41.038 26.8838 41.5 24 41.5C21.1162 41.5 18.4192 41.038 16.4058 40.199C14.7037 39.4898 13.6875 38.5742 13.6875 37.75V35.2158C13.8998 35.3695 14.1345 35.5222 14.3948 35.6728C15.8506 36.5152 17.8314 37.1384 20.1232 37.4748C20.1695 37.4815 20.2152 37.4848 20.2606 37.4848C20.7181 37.4848 21.1185 37.1494 21.1869 36.6833C21.2621 36.1711 20.9077 35.6948 20.3956 35.6196C16.0386 34.98 13.6875 33.3418 13.6875 32.125V29.5825C15.8094 31.1352 19.555 32.125 24 32.125C28.445 32.125 32.1906 31.1352 34.3125 29.5825V32.125C34.3125 33.3418 31.9614 34.98 27.6044 35.6196C27.0922 35.6948 26.7378 36.1711 26.8131 36.6833C26.8815 37.1495 27.2819 37.4848 27.7394 37.4848C27.7847 37.4848 27.8306 37.4815 27.8767 37.4748C30.1685 37.1384 32.1493 36.5153 33.6052 35.6728C33.8654 35.5222 34.1002 35.3695 34.3125 35.2158V37.75C34.3125 38.5742 33.2963 39.4898 31.5942 40.199ZM43.2764 34.5698C41.3747 35.3358 38.8215 35.7992 36.1875 35.8657V32.1168C39.0864 32.0507 41.8312 31.5482 43.9769 30.684C44.8191 30.3448 45.5375 29.9589 46.125 29.5361V32.125C46.125 32.9253 45.0335 33.8621 43.2764 34.5698Z" fill="#848488"/>
</svg>
