<svg width="48" height="48" viewBox="0 0 48 48" fill="none" xmlns="http://www.w3.org/2000/svg">
<path d="M24.6361 29.7382C24.4568 29.3602 24.0046 29.1989 23.6265 29.3784C23.0113 29.6704 22.3663 29.9117 21.7095 30.0954C21.4347 30.1723 21.2265 30.3968 21.1706 30.6767L20.3689 34.6852C20.2898 35.0811 19.9393 35.3684 19.5356 35.3684H17.3485C16.9448 35.3684 16.5945 35.0812 16.5153 34.6852L15.7135 30.6767C15.6576 30.3968 15.4493 30.1723 15.1747 30.0954C14.2467 29.8358 13.3512 29.4647 12.513 28.9926C12.2643 28.8525 11.958 28.864 11.7206 29.0223L8.31881 31.2901C7.983 31.514 7.53206 31.4692 7.2465 31.1839L5.7 29.6373C5.41453 29.3518 5.37 28.9009 5.59378 28.565L7.86159 25.1632C8.01994 24.9257 8.03147 24.6195 7.89131 24.3708C7.41909 23.5325 7.04803 22.6369 6.78844 21.7091C6.71156 21.4343 6.48703 21.2261 6.20719 21.1702L2.19863 20.3685C1.80281 20.2894 1.51547 19.9389 1.51547 19.5353V17.3482C1.51547 16.9445 1.80272 16.5941 2.19863 16.5149L6.20719 15.7132C6.48703 15.6572 6.71156 15.4489 6.78844 15.1743C7.04813 14.2463 7.41919 13.3508 7.89131 12.5126C8.03137 12.264 8.01984 11.9577 7.86159 11.7203L5.59397 8.31881C5.37009 7.98291 5.41472 7.53206 5.70019 7.2465L7.24669 5.7C7.53216 5.41453 7.98319 5.37 8.319 5.59378L11.7208 7.86159C11.9582 8.01994 12.2646 8.03137 12.5132 7.89131C13.3514 7.41919 14.2469 7.04813 15.1748 6.78844C15.4496 6.71156 15.6578 6.48703 15.7137 6.20719L16.5155 2.19863C16.5946 1.80281 16.945 1.51547 17.3487 1.51547H19.5358C19.9395 1.51547 20.2898 1.80272 20.3691 2.19863L21.1708 6.20719C21.2268 6.48703 21.4351 6.71156 21.7097 6.78844C22.6376 7.04813 23.5331 7.41919 24.3713 7.89131C24.6201 8.03137 24.9263 8.01984 25.1637 7.86159L28.5655 5.59378C28.9013 5.36991 29.3522 5.41463 29.6378 5.7L31.1843 7.2465C31.4698 7.53197 31.5143 7.98291 31.2906 8.31881L29.0227 11.7206C28.8644 11.9581 28.8529 12.2643 28.993 12.513C29.4652 13.3512 29.8362 14.2467 30.0959 15.1747C30.1728 15.4494 30.3973 15.6577 30.6772 15.7135L34.6857 16.5153C35.0815 16.5944 35.3689 16.9448 35.3689 17.3485V19.5356C35.3689 19.9393 35.0816 20.2897 34.6857 20.3689L30.6772 21.1706C30.3973 21.2266 30.1728 21.4349 30.0959 21.7097C29.9076 22.3828 29.659 23.0431 29.3572 23.6722C29.176 24.0496 29.3352 24.5023 29.7126 24.6833C30.0899 24.8646 30.5427 24.7053 30.7237 24.3279C30.9961 23.7601 31.23 23.1698 31.4213 22.5676L34.983 21.8553C36.0845 21.6348 36.8842 20.6592 36.8842 19.5355V17.3484C36.8842 16.2248 36.0845 15.2493 34.9825 15.0288L31.421 14.3165C31.1873 13.5811 30.8913 12.8662 30.5365 12.1819L32.5514 9.15947C33.1747 8.2245 33.0504 6.96919 32.2558 6.17456L30.7093 4.62806C29.9146 3.83344 28.6593 3.70931 27.7244 4.33247L24.702 6.34734C24.0177 5.99269 23.3028 5.69653 22.5674 5.46291L21.8551 1.90134C21.6349 0.799688 20.6593 0 19.5356 0H17.3485C16.2248 0 15.2494 0.799688 15.0289 1.90163L14.3166 5.46319C13.5812 5.69681 12.8662 5.99288 12.182 6.34762L9.15975 4.33275C8.22488 3.7095 6.96947 3.83362 6.17484 4.62834L4.62834 6.17484C3.83381 6.96947 3.7095 8.22469 4.33275 9.15975L6.34762 12.1822C5.99297 12.8664 5.69681 13.5813 5.46319 14.3168L1.90153 15.0291C0.799688 15.2494 0 16.2249 0 17.3486V19.5357C0 20.6594 0.799688 21.6349 1.90163 21.8554L5.46319 22.5677C5.69672 23.303 5.99288 24.0179 6.34762 24.7023L4.33275 27.7247C3.7095 28.6597 3.83372 29.915 4.62834 30.7096L6.17484 32.2561C6.96947 33.0507 8.22478 33.1748 9.15975 32.5517L12.1822 30.5368C12.8664 30.8915 13.5813 31.1876 14.3168 31.4212L15.0291 34.983C15.2494 36.0846 16.2249 36.8843 17.3486 36.8843H19.5357C20.6594 36.8843 21.6349 36.0847 21.8554 34.9827L22.5677 31.4212C23.1517 31.2356 23.7248 31.01 24.2766 30.748C24.6547 30.5684 24.8157 30.1163 24.6361 29.7382Z" fill="#848488"/>
<path d="M25.0068 22.6534C25.1174 22.7102 25.2355 22.7371 25.3519 22.7371C25.6272 22.7371 25.8928 22.5866 26.0269 22.3249C26.6382 21.1328 26.9614 19.7902 26.9614 18.4422C26.9614 13.7447 23.1396 9.92285 18.442 9.92285C16.2072 9.92285 14.0954 10.7818 12.4954 12.3417C12.1957 12.6338 12.1896 13.1137 12.4818 13.4134C12.7739 13.713 13.2537 13.7193 13.5534 13.427C14.8686 12.1449 16.6047 11.4387 18.4418 11.4387C22.3036 11.4387 25.4454 14.5804 25.4454 18.4423C25.4454 19.5667 25.1872 20.6404 24.6781 21.6334C24.4872 22.0055 24.6343 22.4623 25.0068 22.6534Z" fill="#848488"/>
<path d="M11.3477 15.1993C10.9518 15.0631 10.5207 15.2735 10.3845 15.6694C10.0782 16.5598 9.92285 17.4928 9.92285 18.4422C9.92285 23.1398 13.7447 26.9616 18.4422 26.9616C20.2489 26.9616 21.975 26.4032 23.4341 25.3465C23.7731 25.101 23.8489 24.6271 23.6035 24.2881C23.3581 23.9491 22.8841 23.8732 22.5451 24.1187C21.3462 24.9867 19.9275 25.4456 18.4421 25.4456C14.5803 25.4456 11.4385 22.3038 11.4385 18.442C11.4385 17.6607 11.566 16.8935 11.8176 16.1622C11.9538 15.7665 11.7434 15.3353 11.3477 15.1993Z" fill="#848488"/>
<path d="M46.5416 33.1233L44.35 32.6851C44.2165 32.2878 44.0557 31.9 43.8693 31.5251L45.1093 29.6653C45.5873 28.9481 45.4921 27.9853 44.8826 27.3759L43.8663 26.3597C43.2569 25.7503 42.2941 25.6549 41.577 26.133L39.7172 27.3729C39.3423 27.1865 38.9544 27.0257 38.5572 26.8923L38.1189 24.7007C37.9499 23.8556 37.2017 23.2422 36.3398 23.2422H34.9025C34.0408 23.2422 33.2925 23.8556 33.1234 24.7007L32.6852 26.8923C32.2879 27.0258 31.9001 27.1866 31.5252 27.3729L29.6654 26.133C28.9482 25.655 27.9854 25.7502 27.376 26.3597L26.3598 27.3759C25.7503 27.9854 25.655 28.9482 26.1331 29.6653L27.373 31.5251C27.1167 32.0405 26.909 32.5803 26.7538 33.1354C26.641 33.5386 26.8764 33.9567 27.2794 34.0696C27.6826 34.1823 28.1007 33.947 28.2136 33.5439C28.3786 32.954 28.6144 32.385 28.9144 31.8524C29.0545 31.6037 29.043 31.2974 28.8847 31.06L27.3944 28.8245C27.3157 28.7065 27.3314 28.5481 27.4317 28.4477L28.4479 27.4315C28.5483 27.3313 28.7067 27.3157 28.8247 27.3942L31.0602 28.8845C31.2976 29.0429 31.6038 29.0543 31.8526 28.9142C32.3853 28.6142 32.9542 28.3784 33.5441 28.2134C33.8189 28.1365 34.0271 27.912 34.083 27.6321L34.6098 24.998C34.6375 24.859 34.7607 24.758 34.9025 24.758H36.3398C36.4816 24.758 36.6048 24.859 36.6326 24.998L37.1594 27.6323C37.2153 27.9122 37.4237 28.1367 37.6983 28.2136C38.2881 28.3786 38.8572 28.6144 39.3898 28.9144C39.6384 29.0545 39.9448 29.043 40.1822 28.8847L42.4176 27.3944C42.5357 27.3157 42.6941 27.3313 42.7944 27.4317L43.8107 28.4479C43.9109 28.5483 43.9265 28.7067 43.848 28.8247L42.3576 31.0602C42.1993 31.2977 42.1878 31.6038 42.3279 31.8526C42.6279 32.3852 42.8638 32.9542 43.0288 33.5441C43.1057 33.8189 43.3302 34.0271 43.61 34.083L46.2441 34.6097C46.3832 34.6375 46.4841 34.7607 46.4841 34.9025V36.3398C46.4841 36.4816 46.3832 36.6047 46.2441 36.6326L43.6098 37.1594C43.33 37.2153 43.1055 37.4237 43.0286 37.6982C42.8636 38.2881 42.6277 38.8572 42.3277 39.3898C42.1877 39.6385 42.1992 39.9448 42.3574 40.1822L43.8478 42.4176C43.9264 42.5357 43.9108 42.6941 43.8105 42.7944L42.7942 43.8107C42.694 43.911 42.5356 43.9265 42.4174 43.848L40.182 42.3576C39.9446 42.1994 39.6382 42.1878 39.3896 42.3279C38.8569 42.6279 38.2879 42.8638 37.6981 43.0288C37.4233 43.1057 37.2151 43.3302 37.1592 43.61L36.6324 46.2441C36.6047 46.3832 36.4815 46.4841 36.3396 46.4841H34.9023C34.7606 46.4841 34.6374 46.3832 34.6096 46.2441L34.0828 43.6098C34.0268 43.33 33.8185 43.1055 33.5439 43.0286C32.954 42.8636 32.385 42.6277 31.8524 42.3277C31.6037 42.1877 31.2973 42.1992 31.06 42.3574L28.8245 43.8478C28.7065 43.9264 28.5481 43.9109 28.4478 43.8105L27.4315 42.7942C27.3313 42.6939 27.3156 42.5355 27.3942 42.4174L28.8845 40.182C29.0429 39.9445 29.0544 39.6383 28.9142 39.3896C28.6142 38.8569 28.3784 38.2879 28.2134 37.6981C28.1365 37.4233 27.912 37.2151 27.6321 37.1592L24.998 36.6324C24.859 36.6047 24.758 36.4815 24.758 36.3396V34.9023C24.758 34.7606 24.859 34.6374 24.998 34.6096L25.1593 34.5773C25.5697 34.4952 25.836 34.0959 25.7537 33.6855C25.6716 33.275 25.2728 33.0092 24.8618 33.091L24.7006 33.1232C23.8556 33.2924 23.2422 34.0406 23.2422 34.9024V36.3397C23.2422 37.2015 23.8556 37.9498 24.7007 38.1188L26.8923 38.5571C27.0258 38.9543 27.1866 39.3422 27.3729 39.7171L26.133 41.5769C25.6548 42.2941 25.7502 43.2569 26.3597 43.8663L27.3759 44.8825C27.9854 45.492 28.9482 45.5872 29.6653 45.1092L31.5251 43.8692C31.9 44.0556 32.2878 44.2164 32.6851 44.3498L33.1233 46.5414C33.2926 47.3866 34.0408 48 34.9026 48H36.3399C37.2017 48 37.95 47.3866 38.119 46.5414L38.5573 44.3498C38.9545 44.2163 39.3423 44.0555 39.7172 43.8692L41.5771 45.1091C42.2943 45.5871 43.2571 45.4919 43.8664 44.8824L44.8827 43.8662C45.4922 43.2567 45.5874 42.2939 45.1094 41.5768L43.8694 39.717C44.0558 39.3421 44.2166 38.9542 44.35 38.557L46.5416 38.1187C47.3867 37.9497 48.0001 37.2015 48.0001 36.3396V34.9023C48.0002 34.0406 47.3867 33.2924 46.5416 33.1233Z" fill="#848488"/>
<path d="M35.6213 32.8927C37.1258 32.8927 38.3497 34.1166 38.3497 35.6211C38.3497 36.0397 38.6891 36.379 39.1076 36.379C39.5261 36.379 39.8655 36.0396 39.8655 35.6211C39.8655 33.2808 37.9615 31.3768 35.6212 31.3768C33.2809 31.3768 31.377 33.2808 31.377 35.6211C31.377 37.9614 33.2809 39.8653 35.6212 39.8653C36.5691 39.8653 37.4657 39.5596 38.2142 38.9814C38.5455 38.7254 38.6065 38.2495 38.3506 37.9181C38.0947 37.5869 37.6186 37.5258 37.2874 37.7817C36.8067 38.1531 36.2305 38.3495 35.6212 38.3495C34.1167 38.3495 32.8928 37.1256 32.8928 35.6211C32.8929 34.1165 34.1168 32.8927 35.6213 32.8927Z" fill="#848488"/>
<path d="M23.0596 18.4421C23.0596 15.896 20.9881 13.8246 18.4422 13.8246C15.8961 13.8246 13.8247 15.8961 13.8247 18.4421C13.8247 20.9881 15.8961 23.0595 18.4422 23.0595C20.9882 23.0595 23.0596 20.988 23.0596 18.4421ZM15.3405 18.4421C15.3405 16.7319 16.732 15.3403 18.4422 15.3403C20.1524 15.3403 21.5439 16.7319 21.5439 18.4421C21.5439 20.1522 20.1525 21.5438 18.4422 21.5438C16.7318 21.5438 15.3405 20.1522 15.3405 18.4421Z" fill="#848488"/>
</svg>
