<svg width="28" height="28" viewBox="0 0 28 28" fill="none" xmlns="http://www.w3.org/2000/svg">
<g id="Instagram">
<g id="Instagram_2">
<path id="Vector" d="M11.0843 14C11.0843 12.3892 12.3897 11.0831 14.0005 11.0831C15.6113 11.0831 16.9174 12.3892 16.9174 14C16.9174 15.6108 15.6113 16.9169 14.0005 16.9169C12.3897 16.9169 11.0843 15.6108 11.0843 14ZM9.50747 14C9.50747 16.4815 11.519 18.493 14.0005 18.493C16.482 18.493 18.4935 16.4815 18.4935 14C18.4935 11.5185 16.482 9.50698 14.0005 9.50698C11.519 9.50698 9.50747 11.5185 9.50747 14ZM17.6214 9.32883C17.6213 9.5365 17.6828 9.73953 17.7981 9.91225C17.9134 10.085 18.0773 10.2196 18.2692 10.2992C18.461 10.3787 18.6721 10.3996 18.8758 10.3592C19.0795 10.3187 19.2666 10.2188 19.4135 10.072C19.5604 9.92522 19.6605 9.73817 19.7011 9.53451C19.7417 9.33084 19.721 9.11971 19.6416 8.92782C19.5622 8.73593 19.4277 8.57188 19.2551 8.45644C19.0824 8.341 18.8795 8.27933 18.6718 8.27925H18.6714C18.393 8.27938 18.1261 8.38999 17.9292 8.58678C17.7323 8.78358 17.6216 9.05047 17.6214 9.32883ZM10.4655 21.1223C9.6124 21.0834 9.14872 20.9413 8.84058 20.8213C8.43206 20.6623 8.14058 20.4728 7.83412 20.1668C7.52766 19.8608 7.33796 19.5696 7.17962 19.161C7.0595 18.853 6.9174 18.3892 6.87862 17.5361C6.8362 16.6138 6.82773 16.3367 6.82773 14.0001C6.82773 11.6634 6.8369 11.3871 6.87862 10.464C6.91747 9.61093 7.06062 9.14802 7.17962 8.83911C7.33866 8.43059 7.52808 8.13911 7.83412 7.83265C8.14016 7.52619 8.43136 7.33649 8.84058 7.17815C9.14858 7.05803 9.6124 6.91593 10.4655 6.87715C11.3878 6.83473 11.6649 6.82626 14.0005 6.82626C16.3361 6.82626 16.6134 6.83543 17.5365 6.87715C18.3896 6.916 18.8525 7.05915 19.1614 7.17815C19.57 7.33649 19.8614 7.52661 20.1679 7.83265C20.4744 8.13869 20.6634 8.43059 20.8224 8.83911C20.9425 9.14711 21.0846 9.61093 21.1234 10.464C21.1658 11.3871 21.1743 11.6634 21.1743 14.0001C21.1743 16.3367 21.1658 16.613 21.1234 17.5361C21.0846 18.3892 20.9418 18.8529 20.8224 19.161C20.6634 19.5696 20.4739 19.861 20.1679 20.1668C19.8619 20.4726 19.57 20.6623 19.1614 20.8213C18.8534 20.9414 18.3896 21.0835 17.5365 21.1223C16.6142 21.1647 16.3372 21.1732 14.0005 21.1732C11.6638 21.1732 11.3875 21.1647 10.4655 21.1223ZM10.393 5.30299C9.46155 5.34541 8.82504 5.49311 8.26917 5.70941C7.69349 5.93278 7.20615 6.23245 6.71916 6.71867C6.23217 7.20489 5.93327 7.693 5.7099 8.26868C5.4936 8.8249 5.3459 9.46106 5.30348 10.3926C5.26036 11.3255 5.25049 11.6238 5.25049 14C5.25049 16.3762 5.26036 16.6745 5.30348 17.6075C5.3459 18.539 5.4936 19.1751 5.7099 19.7313C5.93327 20.3067 6.23224 20.7953 6.71916 21.2813C7.20608 21.7673 7.69349 22.0666 8.26917 22.2906C8.82609 22.5069 9.46155 22.6546 10.393 22.697C11.3265 22.7394 11.6243 22.75 14.0005 22.75C16.3767 22.75 16.675 22.7401 17.6079 22.697C18.5395 22.6546 19.1756 22.5069 19.7318 22.2906C20.3071 22.0666 20.7948 21.7675 21.2818 21.2813C21.7688 20.7951 22.0671 20.3067 22.2911 19.7313C22.5074 19.1751 22.6558 18.5389 22.6975 17.6075C22.7399 16.6738 22.7498 16.3762 22.7498 14C22.7498 11.6238 22.7399 11.3255 22.6975 10.3926C22.6551 9.46099 22.5074 8.82455 22.2911 8.26868C22.0671 7.69335 21.768 7.20566 21.2818 6.71867C20.7956 6.23168 20.3071 5.93278 19.7325 5.70941C19.1756 5.49311 18.5394 5.34471 17.6086 5.30299C16.6757 5.26057 16.3774 5.25 14.0012 5.25C11.625 5.25 11.3265 5.25987 10.393 5.30299Z" fill="#848488"/>
</g>
</g>
</svg>
