<svg width="24" height="24" viewBox="0 0 24 24" fill="none" xmlns="http://www.w3.org/2000/svg">
<path d="M9.50037 12C9.50037 10.6193 10.6193 9.49977 12 9.49977C13.3806 9.49977 14.5001 10.6193 14.5001 12C14.5001 13.3806 13.3806 14.5001 12 14.5001C10.6193 14.5001 9.50037 13.3806 9.50037 12ZM8.14882 12C8.14882 14.1269 9.87297 15.8511 12 15.8511C14.1269 15.8511 15.8511 14.1269 15.8511 12C15.8511 9.87297 14.1269 8.14882 12 8.14882C9.87297 8.14882 8.14882 9.87297 8.14882 12ZM15.1036 7.99612C15.1035 8.17412 15.1562 8.34815 15.255 8.49619C15.3539 8.64423 15.4944 8.75964 15.6588 8.82783C15.8232 8.89601 16.0042 8.91391 16.1788 8.87925C16.3534 8.84459 16.5138 8.75894 16.6397 8.63313C16.7656 8.50731 16.8514 8.34698 16.8862 8.17241C16.921 7.99784 16.9032 7.81688 16.8352 7.6524C16.7671 7.48792 16.6518 7.34731 16.5039 7.24836C16.3559 7.14941 16.1819 7.09656 16.0039 7.09648H16.0035C15.765 7.0966 15.5362 7.1914 15.3674 7.36008C15.1987 7.52876 15.1038 7.75752 15.1036 7.99612ZM8.96997 18.1047C8.23876 18.0714 7.84132 17.9496 7.5772 17.8467C7.22704 17.7104 6.9772 17.5481 6.71453 17.2857C6.45185 17.0234 6.28925 16.7738 6.15353 16.4237C6.05057 16.1597 5.92877 15.7621 5.89553 15.0309C5.85917 14.2403 5.85191 14.0029 5.85191 12C5.85191 9.99717 5.85977 9.76035 5.89553 8.96913C5.92883 8.23792 6.05153 7.84114 6.15353 7.57636C6.28985 7.2262 6.45221 6.97637 6.71453 6.71369C6.97684 6.45101 7.22644 6.28841 7.5772 6.15269C7.8412 6.04973 8.23876 5.92793 8.96997 5.89469C9.76053 5.85833 9.99801 5.85107 12 5.85107C14.0019 5.85107 14.2396 5.85893 15.0308 5.89469C15.7621 5.92799 16.1588 6.05069 16.4236 6.15269C16.7738 6.28841 17.0236 6.45137 17.2863 6.71369C17.549 6.97601 17.711 7.2262 17.8473 7.57636C17.9502 7.84036 18.072 8.23792 18.1053 8.96913C18.1416 9.76035 18.1489 9.99717 18.1489 12C18.1489 14.0029 18.1416 14.2397 18.1053 15.0309C18.072 15.7621 17.9496 16.1596 17.8473 16.4237C17.711 16.7738 17.5486 17.0237 17.2863 17.2857C17.024 17.5478 16.7738 17.7104 16.4236 17.8467C16.1596 17.9497 15.7621 18.0715 15.0308 18.1047C14.2403 18.1411 14.0028 18.1484 12 18.1484C9.99711 18.1484 9.76029 18.1411 8.96997 18.1047ZM8.90787 4.54542C8.10946 4.58178 7.56388 4.70838 7.08742 4.89378C6.59399 5.08524 6.17627 5.34209 5.75885 5.75885C5.34143 6.17561 5.08524 6.59399 4.89378 7.08742C4.70838 7.56418 4.58178 8.10946 4.54542 8.90787C4.50846 9.70755 4.5 9.96321 4.5 12C4.5 14.0367 4.50846 14.2924 4.54542 15.092C4.58178 15.8905 4.70838 16.4357 4.89378 16.9125C5.08524 17.4056 5.34149 17.8245 5.75885 18.2411C6.17621 18.6576 6.59399 18.9141 7.08742 19.1061C7.56478 19.2915 8.10946 19.4181 8.90787 19.4545C9.70797 19.4909 9.96321 19.4999 12 19.4999C14.0367 19.4999 14.2924 19.4915 15.092 19.4545C15.8905 19.4181 16.4357 19.2915 16.9125 19.1061C17.4056 18.9141 17.8236 18.6578 18.2411 18.2411C18.6585 17.8243 18.9141 17.4056 19.1061 16.9125C19.2915 16.4357 19.4187 15.8905 19.4545 15.092C19.4908 14.2918 19.4993 14.0367 19.4993 12C19.4993 9.96321 19.4908 9.70755 19.4545 8.90787C19.4181 8.1094 19.2915 7.56388 19.1061 7.08742C18.9141 6.59429 18.6578 6.17627 18.2411 5.75885C17.8243 5.34143 17.4056 5.08524 16.9131 4.89378C16.4357 4.70838 15.8904 4.58118 15.0926 4.54542C14.293 4.50906 14.0373 4.5 12.0006 4.5C9.96381 4.5 9.70797 4.50846 8.90787 4.54542Z" fill="#848488"/>
</svg>
