<svg width="254" height="64" viewBox="0 0 254 64" fill="none" xmlns="http://www.w3.org/2000/svg">
<path fill-rule="evenodd" clip-rule="evenodd" d="M0.596856 32.9134C-0.421793 29.3602 0.0875315 25.9084 1.6155 22.6598C4.56958 24.7917 6.70874 27.5328 7.62552 31.086C8.64417 34.6393 8.13485 38.091 6.60687 41.3396C3.75466 39.2077 1.51364 36.4666 0.596856 32.9134Z" fill="#8DBE22"/>
<path fill-rule="evenodd" clip-rule="evenodd" d="M56.7243 32.9134C55.7056 29.3602 56.215 25.9084 57.7429 22.6598C60.697 24.7917 62.8362 27.5328 63.753 31.086C64.7716 34.6393 64.2623 38.091 62.7343 41.3396C59.7803 39.2077 57.6411 36.4666 56.7243 32.9134Z" fill="#8DBE22"/>
<path fill-rule="evenodd" clip-rule="evenodd" d="M31.258 0.528173C34.8233 -0.487038 38.2867 0.0205673 41.5464 1.54338C39.4072 4.48749 36.6569 6.61943 33.0916 7.53312C29.5263 8.54833 26.0629 8.04073 22.8032 6.51791C24.9424 3.5738 27.6927 1.44186 31.258 0.528173Z" fill="#8DBE22"/>
<path fill-rule="evenodd" clip-rule="evenodd" d="M31.258 56.4663C34.8233 55.4511 38.2867 55.9587 41.5464 57.4815C39.4072 60.4256 36.6569 62.5575 33.0916 63.4712C29.5263 64.4864 26.0629 63.9788 22.8032 62.456C24.9424 59.5119 27.6927 57.38 31.258 56.4663Z" fill="#8DBE22"/>
<path fill-rule="evenodd" clip-rule="evenodd" d="M51.3256 8.44682C40.2223 17.4822 24.1277 17.4822 13.0244 8.44682L15.6729 5.80727C25.3501 13.4213 39 13.4213 48.6771 5.80727L51.3256 8.44682Z" fill="#848488"/>
<path fill-rule="evenodd" clip-rule="evenodd" d="M8.6441 12.9137C17.7101 23.9795 17.7101 40.0199 8.6441 51.0857L5.99561 48.4461C13.6355 38.8016 13.6355 25.1978 5.99561 15.5533L8.6441 12.9137Z" fill="#848488"/>
<path fill-rule="evenodd" clip-rule="evenodd" d="M13.0244 55.4511C24.1277 46.4157 40.2223 46.4157 51.3256 55.4511L48.6771 58.0906C39 50.4765 25.3501 50.4765 15.6729 58.0906L13.0244 55.4511Z" fill="#848488"/>
<path fill-rule="evenodd" clip-rule="evenodd" d="M55.8078 51.0857C46.7418 40.0199 46.7418 23.9795 55.8078 12.9137L58.4563 15.5533C50.8164 25.1978 50.8164 38.8016 58.4563 48.4461L55.8078 51.0857Z" fill="#848488"/>
<path fill-rule="evenodd" clip-rule="evenodd" d="M32.1748 16.7715C40.6295 16.7715 47.4545 23.5735 47.4545 31.9997C47.4545 40.426 40.6295 47.2279 32.1748 47.2279C23.72 47.2279 16.895 40.426 16.895 31.9997C16.895 23.5735 23.72 16.7715 32.1748 16.7715Z" fill="#848488"/>
<path d="M26.5723 31.6951C26.5723 31.6951 26.7761 32.2027 26.5723 32.5073C26.3686 32.8119 25.6556 32.8119 25.5537 33.5225C25.4518 34.2332 25.6556 34.5377 25.9611 35.0453C26.2667 35.5529 26.063 35.8575 26.3686 36.1621C26.7761 36.3651 27.591 36.5682 27.3873 37.1773C27.1835 37.7864 26.8779 39.0047 27.0817 39.3092C27.2854 39.6138 27.0817 39.6138 26.9798 39.9184C26.8779 40.3244 27.4891 40.629 27.3873 41.1366C27.3873 41.6442 26.8779 42.0503 27.1835 42.5579C27.4891 43.0655 27.591 42.8625 27.6928 43.2686C27.7947 43.6746 27.8966 43.8777 28.2022 43.9792C28.4059 44.0807 28.8134 44.0807 29.0171 44.2838C29.119 44.4868 29.5264 44.0807 29.3227 43.8777C29.119 43.6746 28.8134 43.6746 28.9152 43.2686C29.0171 42.7609 29.3227 42.6594 28.9152 42.4564C28.5078 42.2533 28.6096 41.9488 28.8134 41.9488C28.9152 41.9488 29.3227 41.8472 29.0171 41.5427C28.7115 41.3396 28.6096 41.2381 28.8134 41.2381C29.0171 41.2381 29.7302 41.4412 30.3413 40.9336C30.9525 40.3244 31.4618 39.6138 31.4618 39.6138C31.4618 39.6138 31.6656 39.2077 31.5637 38.8016C31.4619 38.3955 31.7675 38.294 32.3786 38.294C32.888 38.3955 32.888 38.091 32.888 38.091C32.888 38.091 33.3973 38.5986 33.4991 36.5682C33.4991 36.5682 33.4992 36.2636 34.1103 35.959C34.7215 35.6545 34.2122 34.9438 33.9066 34.9438C33.9066 34.9438 33.8047 34.5377 33.4991 34.4362C33.1936 34.3347 32.5824 34.4362 32.2768 34.2332C31.9712 34.0301 31.6656 33.8271 31.6656 33.8271C31.6656 33.8271 31.9712 32.4058 30.6469 32.4058C30.6469 32.4058 30.4432 31.3906 29.7301 31.3906C29.0171 31.3906 28.9152 31.4921 28.8134 31.2891C28.7115 31.086 28.6096 30.4769 28.1003 30.5784C27.591 30.6799 27.4891 31.2891 26.9798 31.1875C26.4705 31.086 25.8593 31.086 26.063 30.5784C26.1649 30.0708 26.2667 29.5632 25.5537 29.5632C25.5537 29.5632 25.35 29.4617 25.6556 29.2586C25.9611 29.0556 25.8593 28.6495 25.6556 28.6495C25.4518 28.6495 24.9425 29.0556 24.7388 29.0556C24.535 29.0556 23.7201 28.9541 24.1276 27.9389C24.535 26.9237 26.6742 26.8221 26.7761 27.3297C26.8779 27.8373 26.7761 28.0404 27.2854 28.0404C27.7947 28.0404 27.591 27.2282 27.591 27.2282L28.9152 26.416C28.9152 26.416 29.0171 26.3145 29.119 26.1115C29.2208 25.9084 30.8507 25.1978 31.1563 24.5887C31.4619 24.0811 31.6656 23.7765 32.073 23.9795C32.5824 24.1826 32.6842 24.2841 32.888 23.9795C32.9898 23.675 33.601 24.4871 33.9066 24.0811C34.1103 23.7765 34.0085 23.3704 33.4991 23.2689C32.9898 23.1674 33.7029 22.6598 33.4991 22.5582C33.2954 22.4567 32.888 22.8628 32.6842 22.6598C32.4805 22.4567 32.888 21.8476 32.2768 21.8476C31.5637 21.8476 31.5637 21.8476 31.36 22.6598C31.1563 23.3704 30.8507 22.6598 30.3413 23.1674C29.832 23.675 29.9339 23.3704 29.9339 23.0658C29.832 22.7613 29.5264 22.4567 29.119 22.4567C28.7115 22.4567 28.9152 21.7461 29.4246 21.6446C29.9339 21.543 30.6469 21.2385 30.6469 21.2385C30.6469 21.2385 30.7488 21.6446 31.0544 21.543C31.4619 21.4415 31.5637 21.0354 31.5637 21.0354L31.9712 21.137L32.2768 20.8324C32.3786 20.8324 33.1936 20.9339 33.1936 20.9339C33.1936 20.9339 33.601 20.9339 33.1936 21.137C32.7861 21.34 32.4805 21.137 32.5824 21.4415C32.6842 21.8476 32.6842 21.6446 32.9898 21.8476C33.2954 22.1522 33.7029 22.0506 33.8047 21.7461C33.8047 21.7461 34.4159 21.9491 34.5178 21.6446C34.6197 21.2385 34.3141 21.137 34.3141 21.137C34.3141 21.137 34.2122 20.6293 33.7029 20.3248C33.1936 20.0202 31.8693 19.7157 31.7674 20.4263C31.6656 21.137 31.1563 20.6293 31.1563 20.6293C31.1563 20.6293 31.4619 20.4263 31.5637 20.1217C31.6656 19.7157 30.5451 19.5126 30.5451 19.9187C30.5451 20.2233 30.7488 20.4263 30.4432 20.5278C30.1376 20.6293 29.9339 20.6293 29.5264 20.7309C29.2208 20.7309 29.119 20.3248 29.119 20.3248C29.119 20.3248 29.4246 20.3248 29.7301 20.2233C30.1376 20.1217 30.3413 19.7157 29.9339 19.6141C29.5264 19.5126 29.9339 19.9187 29.0171 19.8172C29.0171 19.8172 28.9152 19.8172 28.8134 19.5126C28.7115 19.208 27.7947 19.005 27.4891 19.3096C27.1835 19.6141 27.3873 19.8172 27.591 19.9187C27.8966 20.0202 27.4891 20.2233 27.8966 20.2233C28.304 20.3248 28.5078 20.3248 28.4059 20.4263C28.304 20.5278 26.2667 19.9187 26.2667 19.5126C26.2667 19.5126 22.1922 21.34 20.4604 25.1978C20.4604 25.1978 20.4604 25.4008 20.766 25.5024C21.0716 25.6039 21.1735 25.6039 21.0716 26.1115C20.9698 26.6191 20.8679 27.7358 21.4791 27.8373C22.1922 27.9389 21.7847 27.4313 21.6828 27.1267C21.4791 26.8221 21.3772 26.01 21.7847 26.213C22.1921 26.416 21.581 26.4161 22.1921 27.5328C22.8033 28.6495 21.8865 28.548 22.5996 29.3602C23.3127 30.1723 23.7201 29.3602 23.9239 29.5632C24.1276 29.8678 23.9239 29.9693 24.4332 30.0708C24.9425 30.1723 24.7388 29.9693 24.9425 30.3754C25.0444 31.1875 25.1462 31.9997 26.5723 31.6951Z" fill="white"/>
<path d="M31.2583 25.1978C31.2583 25.1978 30.8509 25.2993 31.0546 25.5024C31.2583 25.8069 31.6658 25.6039 31.2583 25.1978Z" fill="white"/>
<path d="M31.7677 24.5887C31.7677 24.5887 31.564 24.4871 31.564 24.7917C31.564 24.9947 31.9714 25.1978 32.0733 24.9948C32.1752 24.7917 31.7677 24.5887 31.7677 24.5887Z" fill="white"/>
<path d="M32.3789 24.9948C32.3789 24.9948 32.1751 25.1978 31.9714 25.1978C31.7677 25.1978 31.4621 25.1978 31.6658 25.5024C31.7677 25.9084 32.1751 25.5024 32.1751 25.5024C32.1751 25.5024 32.8882 25.4008 32.3789 24.9948Z" fill="white"/>
<path d="M33.1937 24.6902C33.1937 24.6902 32.5825 24.5887 32.7862 25.0963C32.7862 25.0963 32.9899 25.1978 33.1937 25.4008C33.3974 25.6039 33.8048 25.6039 33.8048 25.4008C33.9067 25.0963 33.8049 24.6902 33.1937 24.6902Z" fill="white"/>
<path d="M39.6113 28.3449C39.6113 28.3449 38.4908 27.9389 38.0833 28.6495C37.6759 29.3602 37.8796 29.4617 36.7591 29.7662C35.7405 30.0708 36.4535 30.6799 36.4535 30.6799C36.4535 30.6799 36.7591 30.883 36.3516 31.1875C35.9442 31.3906 35.7405 32.1012 35.9442 32.5073C36.1479 32.9134 36.6572 33.8271 37.0647 34.0301C37.4721 34.2332 38.5927 34.3347 38.8983 34.0301C39.102 33.7256 39.3057 33.7256 39.6113 34.0301C39.9169 34.3347 40.9356 34.1316 40.8337 34.4362C40.7318 34.7408 40.2225 35.3499 40.63 36.0606C41.0374 36.7712 41.343 37.3803 40.8337 37.7864C40.3244 38.1925 40.4262 38.7001 40.8337 39.2077C40.8337 39.2077 40.5281 40.2229 40.8337 40.629C41.1393 41.0351 41.1393 41.6442 40.9356 41.8473C40.8337 42.1518 40.9356 41.9488 40.9356 41.9488C40.9356 41.9488 40.8337 42.3549 41.0374 42.1518C41.2412 41.9488 46.4363 37.3803 45.5195 30.0708C45.5195 30.0708 44.2971 30.1723 44.1952 29.8678C44.0934 29.4617 43.6859 29.3602 42.871 29.4617C42.0561 29.5632 42.3617 29.2586 42.0561 29.1571C41.7505 29.0556 41.4449 29.0556 41.4449 29.0556C41.4449 29.0556 42.4635 27.7358 39.6113 28.3449Z" fill="white"/>
<path d="M40.0187 26.5176C40.0187 26.5176 40.1206 27.0252 39.815 26.9237C39.5094 26.8221 38.4907 26.5176 38.4907 27.3297C38.4907 28.1419 39.2038 28.1419 39.9168 28.0404C40.6299 27.9389 40.9355 27.1267 40.9355 27.1267C40.9355 27.1267 41.6485 27.4313 41.8523 27.0252C41.8523 27.0252 42.1579 27.8373 42.5653 27.9389C42.5653 27.9389 42.1579 28.0404 42.2597 28.3449C42.3616 28.751 43.4821 28.548 43.1765 27.8373C42.9728 27.1267 41.7504 27.2282 42.4635 26.8221C43.1765 26.416 43.4821 27.5328 43.4821 27.8373C43.4821 28.1419 43.2784 28.8526 43.7877 28.548C44.3989 28.2434 44.297 27.4313 44.3989 27.8373C44.6026 28.2434 44.1952 28.751 44.8064 28.8525C45.3157 28.9541 45.5194 28.9541 45.5194 28.9541C45.5194 28.9541 44.6026 25.4008 42.5653 23.1674C42.5653 23.1674 42.5653 23.4719 42.056 23.4719C41.5467 23.4719 41.2411 24.0811 41.5467 24.4872C41.8523 24.8932 42.4635 24.6902 42.3616 24.8932C42.3616 25.1978 42.2597 25.2993 41.8523 25.0963C41.4448 24.8932 41.2411 24.9947 41.1392 25.2993C41.0373 25.7054 40.8336 25.9084 40.6299 25.8069C40.4262 25.7054 39.7131 25.9085 40.0187 26.5176Z" fill="white"/>
<path d="M39.2035 24.4872C39.2035 24.4872 38.5923 24.7917 39.1016 25.1978C39.5091 25.7054 39.7128 24.5887 39.9165 24.6902C40.1203 24.7917 40.1203 24.9948 40.0184 25.0963C39.8147 25.1978 39.5091 25.4008 39.8147 25.5024C40.1203 25.6039 40.8333 25.7054 40.8333 25.2993C40.8333 24.8932 40.5277 24.7917 40.5277 24.7917C40.5277 24.7917 40.2221 24.3856 40.4259 24.0811C40.4259 24.0811 40.4259 23.7765 40.1203 23.7765C39.7128 23.7765 39.7128 24.3856 39.7128 24.3856C39.5091 24.4871 39.2035 24.4872 39.2035 24.4872Z" fill="white"/>
<path d="M82 35.6667V38.8889H85.1933L87.2855 36.7778V28.3333H91.4699V39H94.6633V25.2222H84.0922V35.8889H82V35.6667ZM96.7554 25V38.8889H99.9488V36.2222H104.684V38.8889H107.877V25.1111H96.7554V25ZM99.8387 28.2222H104.574V33H99.8387V28.2222ZM120.981 27.1111L118.889 25H109.969V28.2222H117.898V30.3333H112.612V33.5555H117.898V35.6667H109.969V38.8889H118.889L120.981 36.7778V33.1111L119.88 32L120.981 30.8889V27.1111ZM123.073 25V38.8889H134.085V35.6667H126.156V33.5555H131.442V30.3333H126.156V28.2222H134.085V25H123.073ZM136.177 25V38.8889H139.37V36.2222H147.298V25.1111H136.177V25ZM139.37 28.2222H144.105V33H139.37V28.2222ZM152.474 38.8889V33.5555H154.786L157.209 38.8889H160.843L157.649 32L160.843 25.1111H157.209L154.786 30.4444H152.474V25.1111H149.28V38.8889H152.474ZM162.494 25V38.8889H173.506V25.1111H162.494V25ZM165.688 28.2222H170.423V35.6667H165.688V28.2222ZM182.425 33.5555L186.059 29.8889V38.8889H189.252V25.1111H186.059L182.425 28.8889L178.791 25.1111H175.598V38.8889H178.791V29.8889L182.425 33.5555ZM199.273 28.2222V38.8889H202.466V25.1111H191.455V38.8889H194.648V28.2222H199.273ZM204.558 25V38.8889H215.57V25.1111H204.558V25ZM207.752 28.2222H212.487V35.6667H207.752V28.2222ZM228.784 27.1111L226.691 25H217.772V28.2222H225.7V30.3333H220.415V33.5555H225.7V35.6667H217.772V38.8889H226.691L228.784 36.7778V33.1111L227.682 32L228.784 30.8889V27.1111ZM230.876 38.8889H234.069L238.804 30.8889V38.8889H241.997V25.1111H238.804L234.069 33.1111V25.1111H230.876V38.8889ZM243.539 25V28.2222H247.173V38.8889H250.366V28.2222H254V25H243.539Z" fill="#848488"/>
</svg>
