<svg width="129" height="10" viewBox="0 0 129 10" fill="none" xmlns="http://www.w3.org/2000/svg">
<path d="M0.666016 7.61905V9.92063H3.03317L4.58407 8.4127V2.38095H7.68587V10H10.053V0.158728H2.21691V7.77778H0.666016V7.61905ZM11.6039 0V9.92063H13.9711V8.01587H17.481V9.92063H19.8482V0.0793699H11.6039V0ZM13.8894 2.30158H17.3994V5.71428H13.8894V2.30158ZM29.5617 1.50793L28.0108 0H21.399V2.30158H27.2761V3.80952H23.3581V6.11111H27.2761V7.61905H21.399V9.92063H28.0108L29.5617 8.4127V5.79365L28.7454 5L29.5617 4.20635V1.50793ZM31.1126 0V9.92063H39.2752V7.61905H33.3981V6.11111H37.3161V3.80952H33.3981V2.30158H39.2752V0H31.1126ZM40.8261 0V9.92063H43.1932V8.01587H49.0703V0.0793699H40.8261V0ZM43.1932 2.30158H46.7031V5.71428H43.1932V2.30158ZM52.9067 9.92063V6.11111H54.6209L56.4167 9.92063H59.1103L56.7432 5L59.1103 0.0793699H56.4167L54.6209 3.88888H52.9067V0.0793699H50.5396V9.92063H52.9067ZM60.3347 0V9.92063H68.4973V0.0793699H60.3347V0ZM62.7019 2.30158H66.2118V7.61905H62.7019V2.30158ZM75.109 6.11111L77.8027 3.49206V9.92063H80.1698V0.0793699H77.8027L75.109 2.77778L72.4154 0.0793699H70.0482V9.92063H72.4154V3.49206L75.109 6.11111ZM87.5978 2.30158V9.92063H89.965V0.0793699H81.8024V9.92063H84.1695V2.30158H87.5978ZM91.5159 0V9.92063H99.6785V0.0793699H91.5159V0ZM93.883 2.30158H97.393V7.61905H93.883V2.30158ZM109.474 1.50793L107.923 0H101.311V2.30158H107.188V3.80952H103.27V6.11111H107.188V7.61905H101.311V9.92063H107.923L109.474 8.4127V5.79365L108.657 5L109.474 4.20635V1.50793ZM111.025 9.92063H113.392L116.902 4.20635V9.92063H119.269V0.0793699H116.902L113.392 5.79365V0.0793699H111.025V9.92063ZM120.412 0V2.30158H123.105V9.92063H125.472V2.30158H128.166V0H120.412Z" fill="#848488"/>
</svg>
