<svg width="215" height="48" viewBox="0 0 215 48" fill="none" xmlns="http://www.w3.org/2000/svg">
<path fill-rule="evenodd" clip-rule="evenodd" d="M0.447642 24.685C-0.316344 22.0201 0.0656486 19.4313 1.21163 16.9948C3.42719 18.5938 5.03155 20.6496 5.71914 23.3145C6.48313 25.9794 6.10113 28.5682 4.95516 31.0047C2.81599 29.4058 1.13523 27.35 0.447642 24.685Z" fill="#8DBE22"/>
<path fill-rule="evenodd" clip-rule="evenodd" d="M42.5433 24.685C41.7794 22.0201 42.1614 19.4313 43.3073 16.9948C45.5229 18.5938 47.1273 20.6496 47.8149 23.3145C48.5788 25.9794 48.1968 28.5682 47.0509 31.0047C44.8353 29.4058 43.2309 27.35 42.5433 24.685Z" fill="#8DBE22"/>
<path fill-rule="evenodd" clip-rule="evenodd" d="M23.4436 0.396129C26.1176 -0.365278 28.7151 0.0154255 31.1599 1.15754C29.5555 3.36562 27.4928 4.96457 24.8188 5.64984C22.1449 6.41125 19.5473 6.03054 17.1025 4.88843C18.7069 2.68035 20.7697 1.0814 23.4436 0.396129Z" fill="#8DBE22"/>
<path fill-rule="evenodd" clip-rule="evenodd" d="M23.4436 42.3497C26.1176 41.5883 28.7151 41.969 31.1599 43.1111C29.5555 45.3192 27.4928 46.9182 24.8188 47.6034C22.1449 48.3648 19.5473 47.9841 17.1025 46.842C18.7069 44.6339 20.7697 43.035 23.4436 42.3497Z" fill="#8DBE22"/>
<path fill-rule="evenodd" clip-rule="evenodd" d="M38.4941 6.33512C30.1666 13.1117 18.0956 13.1117 9.76819 6.33512L11.7545 4.35545C19.0124 10.066 29.2499 10.066 36.5077 4.35545L38.4941 6.33512Z" fill="#848488"/>
<path fill-rule="evenodd" clip-rule="evenodd" d="M6.4832 9.68531C13.2827 17.9847 13.2827 30.0149 6.4832 38.3142L4.49683 36.3346C10.2267 29.1012 10.2267 18.8983 4.49683 11.665L6.4832 9.68531Z" fill="#848488"/>
<path fill-rule="evenodd" clip-rule="evenodd" d="M9.76819 41.5883C18.0956 34.8118 30.1666 34.8118 38.4941 41.5883L36.5077 43.568C29.2499 37.8574 19.0124 37.8574 11.7545 43.568L9.76819 41.5883Z" fill="#848488"/>
<path fill-rule="evenodd" clip-rule="evenodd" d="M41.8557 38.3142C35.0562 30.0149 35.0562 17.9847 41.8557 9.68531L43.8421 11.665C38.1122 18.8983 38.1122 29.1012 43.8421 36.3346L41.8557 38.3142Z" fill="#848488"/>
<path fill-rule="evenodd" clip-rule="evenodd" d="M24.1313 12.5787C30.4724 12.5787 35.5911 17.6801 35.5911 23.9998C35.5911 30.3195 30.4724 35.4209 24.1313 35.4209C17.7902 35.4209 12.6715 30.3195 12.6715 23.9998C12.6715 17.6801 17.7902 12.5787 24.1313 12.5787Z" fill="#848488"/>
<path d="M19.9294 23.7714C19.9294 23.7714 20.0822 24.1521 19.9294 24.3805C19.7766 24.6089 19.2418 24.6089 19.1654 25.1419C19.089 25.6749 19.2418 25.9033 19.471 26.284C19.7002 26.6647 19.5474 26.8931 19.7766 27.1216C20.0822 27.2738 20.6934 27.4261 20.5406 27.883C20.3878 28.3398 20.1586 29.2535 20.3114 29.4819C20.4642 29.7103 20.3114 29.7103 20.235 29.9388C20.1586 30.2433 20.617 30.4717 20.5406 30.8524C20.5406 31.2332 20.1586 31.5377 20.3878 31.9184C20.617 32.2991 20.6934 32.1468 20.7698 32.4514C20.8462 32.756 20.9226 32.9083 21.1518 32.9844C21.3046 33.0605 21.6101 33.0605 21.7629 33.2128C21.8393 33.3651 22.1449 33.0605 21.9921 32.9082C21.8393 32.756 21.6101 32.756 21.6865 32.4514C21.7629 32.0707 21.9921 31.9946 21.6865 31.8423C21.3809 31.69 21.4574 31.4616 21.6101 31.4616C21.6865 31.4616 21.9921 31.3854 21.7629 31.157C21.5337 31.0047 21.4574 30.9286 21.6101 30.9286C21.7629 30.9286 22.2977 31.0809 22.7561 30.7002C23.2145 30.2433 23.5965 29.7103 23.5965 29.7103C23.5965 29.7103 23.7493 29.4058 23.6729 29.1012C23.5965 28.7966 23.8257 28.7205 24.2841 28.7205C24.6661 28.7966 24.6661 28.5682 24.6661 28.5682C24.6661 28.5682 25.0481 28.9489 25.1245 27.4261C25.1245 27.4261 25.1245 27.1977 25.5829 26.9693C26.0413 26.7408 25.6593 26.2079 25.4301 26.2079C25.4301 26.2079 25.3537 25.9033 25.1245 25.8272C24.8953 25.751 24.4369 25.8272 24.2077 25.6749C23.9785 25.5226 23.7493 25.3703 23.7493 25.3703C23.7493 25.3703 23.9785 24.3043 22.9853 24.3043C22.9853 24.3043 22.8325 23.5429 22.2977 23.5429C21.7629 23.5429 21.6865 23.6191 21.6101 23.4668C21.5338 23.3145 21.4574 22.8577 21.0754 22.9338C20.6934 23.0099 20.617 23.4668 20.235 23.3906C19.853 23.3145 19.3946 23.3145 19.5474 22.9338C19.6238 22.5531 19.7002 22.1724 19.1654 22.1724C19.1654 22.1724 19.0126 22.0963 19.2418 21.944C19.471 21.7917 19.3946 21.4871 19.2418 21.4871C19.089 21.4871 18.707 21.7917 18.5542 21.7917C18.4014 21.7917 17.7902 21.7156 18.0958 20.9541C18.4014 20.1927 20.0058 20.1166 20.0822 20.4973C20.1586 20.878 20.0822 21.0303 20.4642 21.0303C20.8462 21.0303 20.6934 20.4212 20.6934 20.4212L21.6865 19.812C21.6865 19.812 21.7629 19.7359 21.8393 19.5836C21.9157 19.4313 23.1381 18.8983 23.3673 18.4415C23.5965 18.0608 23.7493 17.8324 24.0549 17.9847C24.4369 18.1369 24.5133 18.2131 24.6661 17.9847C24.7425 17.7562 25.2009 18.3654 25.4301 18.0608C25.5829 17.8324 25.5065 17.5278 25.1245 17.4517C24.7425 17.3755 25.2773 16.9948 25.1245 16.9187C24.9717 16.8425 24.6661 17.1471 24.5133 16.9948C24.3605 16.8425 24.6661 16.3857 24.2077 16.3857C23.6729 16.3857 23.6729 16.3857 23.5201 16.9948C23.3673 17.5278 23.1381 16.9948 22.7561 17.3755C22.3741 17.7562 22.4505 17.5278 22.4505 17.2994C22.3741 17.071 22.1449 16.8425 21.8393 16.8425C21.5338 16.8425 21.6865 16.3096 22.0685 16.2334C22.4505 16.1573 22.9853 15.9288 22.9853 15.9288C22.9853 15.9288 23.0617 16.2334 23.2909 16.1573C23.5965 16.0811 23.6729 15.7766 23.6729 15.7766L23.9785 15.8527L24.2077 15.6243C24.2841 15.6243 24.8953 15.7004 24.8953 15.7004C24.8953 15.7004 25.2009 15.7004 24.8953 15.8527C24.5897 16.005 24.3605 15.8527 24.4369 16.0811C24.5133 16.3857 24.5133 16.2334 24.7425 16.3857C24.9717 16.6141 25.2773 16.538 25.3537 16.3095C25.3537 16.3095 25.8121 16.4618 25.8885 16.2334C25.9649 15.9289 25.7357 15.8527 25.7357 15.8527C25.7357 15.8527 25.6593 15.472 25.2773 15.2436C24.8953 15.0152 23.9021 14.7867 23.8257 15.3197C23.7493 15.8527 23.3673 15.472 23.3673 15.472C23.3673 15.472 23.5965 15.3197 23.6729 15.0913C23.7493 14.7867 22.9089 14.6345 22.9089 14.939C22.9089 15.1674 23.0617 15.3197 22.8325 15.3959C22.6033 15.472 22.4505 15.472 22.1449 15.5481C21.9157 15.5481 21.8393 15.2436 21.8393 15.2436C21.8393 15.2436 22.0685 15.2436 22.2977 15.1674C22.6033 15.0913 22.7561 14.7867 22.4505 14.7106C22.1449 14.6345 22.4505 14.939 21.7629 14.8629C21.7629 14.8629 21.6865 14.8629 21.6101 14.6345C21.5338 14.406 20.8462 14.2538 20.617 14.4822C20.3878 14.7106 20.5406 14.8629 20.6934 14.939C20.9226 15.0152 20.617 15.1674 20.9226 15.1674C21.2281 15.2436 21.3809 15.2436 21.3045 15.3197C21.2281 15.3959 19.7002 14.939 19.7002 14.6345C19.7002 14.6345 16.6442 16.005 15.3455 18.8983C15.3455 18.8983 15.3454 19.0506 15.5746 19.1268C15.8038 19.2029 15.8802 19.2029 15.8038 19.5836C15.7274 19.9643 15.6511 20.8019 16.1094 20.878C16.6442 20.9541 16.3386 20.5734 16.2622 20.345C16.1094 20.1166 16.033 19.5075 16.3386 19.6598C16.6442 19.812 16.1858 19.812 16.6442 20.6496C17.1026 21.4871 16.415 21.411 16.9498 22.0201C17.4846 22.6292 17.7902 22.0201 17.943 22.1724C18.0958 22.4008 17.943 22.477 18.325 22.5531C18.707 22.6292 18.5542 22.477 18.707 22.7815C18.7834 23.3906 18.8598 23.9998 19.9294 23.7714Z" fill="white"/>
<path d="M23.4436 18.8983C23.4436 18.8983 23.138 18.9745 23.2908 19.1268C23.4436 19.3552 23.7492 19.2029 23.4436 18.8983Z" fill="white"/>
<path d="M23.8256 18.4415C23.8256 18.4415 23.6729 18.3654 23.6729 18.5938C23.6729 18.7461 23.9785 18.8983 24.0549 18.7461C24.1313 18.5938 23.8256 18.4415 23.8256 18.4415Z" fill="white"/>
<path d="M24.284 18.7461C24.284 18.7461 24.1312 18.8984 23.9784 18.8984C23.8256 18.8984 23.5964 18.8984 23.7492 19.1268C23.8256 19.4313 24.1312 19.1268 24.1312 19.1268C24.1312 19.1268 24.666 19.0506 24.284 18.7461Z" fill="white"/>
<path d="M24.8953 18.5176C24.8953 18.5176 24.4369 18.4415 24.5897 18.8222C24.5897 18.8222 24.7425 18.8984 24.8953 19.0506C25.0481 19.2029 25.3536 19.2029 25.3536 19.0506C25.43 18.8222 25.3536 18.5176 24.8953 18.5176Z" fill="white"/>
<path d="M29.7082 21.2587C29.7082 21.2587 28.8679 20.9541 28.5623 21.4871C28.2567 22.0201 28.4095 22.0963 27.5691 22.3247C26.8051 22.5531 27.3399 23.0099 27.3399 23.0099C27.3399 23.0099 27.5691 23.1622 27.2635 23.3907C26.9579 23.5429 26.8051 24.0759 26.9579 24.3805C27.1107 24.685 27.4927 25.3703 27.7983 25.5226C28.1039 25.6749 28.9443 25.751 29.1735 25.5226C29.3263 25.2942 29.479 25.2942 29.7082 25.5226C29.9374 25.751 30.7014 25.5987 30.625 25.8272C30.5486 26.0556 30.1666 26.5124 30.4722 27.0454C30.7778 27.5784 31.007 28.0352 30.625 28.3398C30.243 28.6444 30.3194 29.0251 30.625 29.4058C30.625 29.4058 30.3958 30.1672 30.625 30.4718C30.8542 30.7763 30.8542 31.2332 30.7014 31.3854C30.625 31.6139 30.7014 31.4616 30.7014 31.4616C30.7014 31.4616 30.625 31.7661 30.7778 31.6139C30.9306 31.4616 34.827 28.0352 34.1394 22.5531C34.1394 22.5531 33.2226 22.6292 33.1462 22.4008C33.0698 22.0963 32.7642 22.0201 32.153 22.0963C31.5418 22.1724 31.771 21.944 31.5418 21.8678C31.3126 21.7917 31.0834 21.7917 31.0834 21.7917C31.0834 21.7917 31.8474 20.8019 29.7082 21.2587Z" fill="white"/>
<path d="M30.0139 19.8882C30.0139 19.8882 30.0903 20.2689 29.8611 20.1927C29.6319 20.1166 28.8679 19.8882 28.8679 20.4973C28.8679 21.1064 29.4027 21.1064 29.9375 21.0303C30.4723 20.9542 30.7015 20.345 30.7015 20.345C30.7015 20.345 31.2363 20.5734 31.3891 20.2689C31.3891 20.2689 31.6183 20.878 31.9239 20.9541C31.9239 20.9541 31.6183 21.0303 31.6947 21.2587C31.7711 21.5633 32.6115 21.411 32.3823 20.878C32.2295 20.345 31.3127 20.4212 31.8475 20.1166C32.3823 19.812 32.6115 20.6496 32.6115 20.878C32.6115 21.1064 32.4587 21.6394 32.8407 21.411C33.299 21.1826 33.2227 20.5734 33.2991 20.878C33.4519 21.1826 33.1463 21.5633 33.6046 21.6394C33.9866 21.7156 34.1394 21.7156 34.1394 21.7156C34.1394 21.7156 33.4518 19.0506 31.9239 17.3755C31.9239 17.3755 31.9239 17.604 31.5419 17.604C31.1599 17.604 30.9307 18.0608 31.1599 18.3654C31.3891 18.6699 31.8475 18.5176 31.7711 18.6699C31.7711 18.8983 31.6947 18.9745 31.3891 18.8222C31.0835 18.6699 30.9307 18.7461 30.8543 18.9745C30.7779 19.279 30.6251 19.4313 30.4723 19.3552C30.3195 19.279 29.7847 19.4313 30.0139 19.8882Z" fill="white"/>
<path d="M29.4028 18.3654C29.4028 18.3654 28.9444 18.5938 29.3264 18.8984C29.632 19.2791 29.7848 18.4415 29.9376 18.5176C30.0904 18.5938 30.0904 18.7461 30.014 18.8222C29.8612 18.8983 29.6321 19.0506 29.8612 19.1268C30.0904 19.2029 30.6252 19.279 30.6252 18.9745C30.6252 18.6699 30.396 18.5938 30.396 18.5938C30.396 18.5938 30.1668 18.2892 30.3196 18.0608C30.3196 18.0608 30.3196 17.8324 30.0904 17.8324C29.7848 17.8324 29.7848 18.2892 29.7848 18.2892C29.632 18.3654 29.4028 18.3654 29.4028 18.3654Z" fill="white"/>
<path d="M61.9999 27.1429V29.9048H64.8405L66.7015 28.0952V20.8571H70.4237V30H73.2643V18.1905H63.861V27.3333H61.9999V27.1429ZM75.1254 18V29.9048H77.9659V27.619H82.1779V29.9048H85.0184V18.0952H75.1254V18ZM77.868 20.7619H82.0799V24.8571H77.868V20.7619ZM96.6746 19.8095L94.8136 18H86.8795V20.7619H93.932V22.5714H89.2304V25.3333H93.932V27.1429H86.8795V29.9048H94.8136L96.6746 28.0952V24.9524L95.6951 24L96.6746 23.0476V19.8095ZM98.5357 18V29.9048H108.331V27.1429H101.278V25.3333H105.98V22.5714H101.278V20.7619H108.331V18H98.5357ZM110.192 18V29.9048H113.033V27.619H120.085V18.0952H110.192V18ZM113.033 20.7619H117.244V24.8571H113.033V20.7619ZM124.689 29.9048V25.3333H126.746L128.901 29.9048H132.133L129.292 24L132.133 18.0952H128.901L126.746 22.6667H124.689V18.0952H121.848V29.9048H124.689ZM133.602 18V29.9048H143.397V18.0952H133.602V18ZM136.443 20.7619H140.655V27.1429H136.443V20.7619ZM151.331 25.3333L154.564 22.1905V29.9048H157.404V18.0952H154.564L151.331 21.3333L148.099 18.0952H145.259V29.9048H148.099V22.1905L151.331 25.3333ZM166.318 20.7619V29.9048H169.159V18.0952H159.363V29.9048H162.204V20.7619H166.318ZM171.02 18V29.9048H180.815V18.0952H171.02V18ZM173.86 20.7619H178.072V27.1429H173.86V20.7619ZM192.569 19.8095L190.708 18H182.774V20.7619H189.826V22.5714H185.125V25.3333H189.826V27.1429H182.774V29.9048H190.708L192.569 28.0952V24.9524L191.589 24L192.569 23.0476V19.8095ZM194.43 29.9048H197.271L201.483 23.0476V29.9048H204.323V18.0952H201.483L197.271 24.9524V18.0952H194.43V29.9048ZM205.695 18V20.7619H208.927V29.9048H211.767V20.7619H215V18H205.695Z" fill="#848488"/>
</svg>
