<svg width="286" height="280" viewBox="0 0 286 280" fill="none" xmlns="http://www.w3.org/2000/svg">
<path fill-rule="evenodd" clip-rule="evenodd" d="M2.61896 143.996C-1.85093 128.451 0.384013 113.349 7.08885 99.1365C20.0515 108.464 29.4383 120.456 33.4612 136.001C37.9311 151.547 35.6961 166.648 28.9913 180.861C16.4756 171.534 6.64186 159.542 2.61896 143.996Z" fill="#8DBE22"/>
<path fill-rule="evenodd" clip-rule="evenodd" d="M248.91 143.996C244.44 128.451 246.675 113.349 253.38 99.1365C266.343 108.464 275.729 120.456 279.752 136.001C284.222 151.547 281.987 166.648 275.282 180.861C262.32 171.534 252.933 159.542 248.91 143.996Z" fill="#8DBE22"/>
<path fill-rule="evenodd" clip-rule="evenodd" d="M137.163 2.31076C152.807 -2.13079 168.005 0.0899819 182.309 6.7523C172.922 19.6328 160.853 28.96 145.208 32.9574C129.564 37.3989 114.366 35.1782 100.062 28.5159C109.449 15.6354 121.518 6.30815 137.163 2.31076Z" fill="#8DBE22"/>
<path fill-rule="evenodd" clip-rule="evenodd" d="M137.163 247.04C152.807 242.598 168.005 244.819 182.309 251.482C172.922 264.362 160.853 273.689 145.208 277.687C129.564 282.128 114.366 279.907 100.062 273.245C109.449 260.365 121.518 251.037 137.163 247.04Z" fill="#8DBE22"/>
<path fill-rule="evenodd" clip-rule="evenodd" d="M225.219 36.9548C176.498 76.4846 105.873 76.4846 57.1514 36.9548L68.7731 25.4068C111.237 58.7184 171.134 58.7184 213.598 25.4068L225.219 36.9548Z" fill="#848488"/>
<path fill-rule="evenodd" clip-rule="evenodd" d="M37.9308 56.4976C77.7129 104.91 77.7129 175.087 37.9308 223.5L26.3091 211.952C59.8333 169.757 59.8333 110.24 26.3091 68.0457L37.9308 56.4976Z" fill="#848488"/>
<path fill-rule="evenodd" clip-rule="evenodd" d="M57.1514 242.598C105.873 203.069 176.498 203.069 225.219 242.598L213.598 254.146C171.134 220.835 111.237 220.835 68.7731 254.146L57.1514 242.598Z" fill="#848488"/>
<path fill-rule="evenodd" clip-rule="evenodd" d="M244.887 223.5C205.105 175.087 205.105 104.91 244.887 56.4976L256.509 68.0457C222.985 110.24 222.985 169.757 256.509 211.952L244.887 223.5Z" fill="#848488"/>
<path fill-rule="evenodd" clip-rule="evenodd" d="M141.186 73.3755C178.286 73.3755 208.234 103.134 208.234 139.999C208.234 176.864 178.286 206.622 141.186 206.622C104.085 206.622 74.1372 176.864 74.1372 139.999C74.1372 103.134 104.085 73.3755 141.186 73.3755Z" fill="#848488"/>
<mask id="mask0" style="mask-type:alpha" maskUnits="userSpaceOnUse" x="82" y="81" width="118" height="118">
<path fill-rule="evenodd" clip-rule="evenodd" d="M141.186 81.5897C173.711 81.5897 199.967 107.679 199.967 139.999C199.967 172.318 173.711 198.408 141.186 198.408C108.66 198.408 82.4038 172.318 82.4038 139.999C82.4038 107.679 108.66 81.5897 141.186 81.5897Z" fill="#848488"/>
</mask>
<g mask="url(#mask0)">
<path fill-rule="evenodd" clip-rule="evenodd" d="M78.955 86.1066C77.8609 86.7295 77.4254 87.2797 77.4254 87.2797C76.3035 87.8917 76.3034 88.8097 76.8897 89.8525C77.2832 90.2545 77.907 90.4408 78.7848 90.7031C78.8405 90.7197 78.8972 90.7367 78.955 90.754C79.0247 90.7749 79.0958 90.7965 79.1685 90.8185C80.0528 91.0867 81.1605 91.4226 82.5107 91.4226C83.2956 91.4226 83.9811 91.6793 84.5838 92.0797C85.1346 92.4457 85.3197 92.681 85.6964 93.16C85.7298 93.2025 85.7647 93.2468 85.8015 93.2934C86.0974 93.6678 86.3192 93.9341 86.4969 94.1475C86.7472 94.4481 86.91 94.6437 87.0696 94.8885C87.3201 95.2728 87.6416 95.5736 87.9147 95.8291C88.0649 95.9697 88.2005 96.0965 88.3017 96.2161L89.7377 97.6072C89.7377 97.6072 90.52 97.9185 90.8295 98.9761C91.139 100.034 89.7377 101.9 89.7377 101.9C89.7377 101.9 88.0699 103.232 88.0699 104.266C88.0699 104.589 88.0296 104.946 87.9867 105.327C87.8925 106.163 87.786 107.107 88.0699 108.028C88.4078 109.123 89.5042 110.274 89.8922 110.657C90.0376 110.95 90.3679 111.339 91.119 111.587C91.1965 111.613 91.271 111.637 91.3425 111.66C92.5086 112.039 92.8811 112.16 92.4599 114.252C92.013 116.473 91.566 121.359 94.2479 121.803C96.7476 122.158 96.1092 120.812 95.5234 119.577C95.3759 119.266 95.2318 118.962 95.1419 118.694C94.2479 117.361 93.8009 113.808 95.5889 114.696C96.3451 115.072 96.3017 115.289 96.2027 115.784C96.0677 116.459 95.8292 117.651 97.3768 120.47C98.7136 122.905 98.3847 124.017 98.1058 124.958C97.8252 125.906 97.5954 126.683 99.1648 128.465C101.236 130.817 102.719 130.056 103.745 129.529C104.269 129.261 104.673 129.053 104.976 129.353C105.269 129.79 105.37 130.131 105.452 130.408C105.62 130.977 105.708 131.276 107.211 131.574C108.415 131.814 108.711 131.666 108.867 131.757C109.001 131.835 109.033 132.088 109.446 132.907C109.893 136.46 110.34 140.013 116.597 138.681C116.597 138.681 117.491 140.901 116.597 142.234C116.279 142.708 115.679 143.013 115.017 143.35C113.817 143.96 112.416 144.672 112.128 146.675C111.697 149.672 112.512 151.018 113.772 153.1C113.819 153.178 113.867 153.257 113.915 153.338C114.566 154.416 114.691 155.284 114.8 156.045C114.915 156.852 115.013 157.538 115.703 158.224C116.009 158.376 116.368 158.528 116.747 158.689C118.585 159.468 120.914 160.456 120.173 162.665C119.279 165.33 117.938 170.66 118.832 171.992C119.428 172.881 119.23 173.177 118.899 173.67C118.733 173.917 118.534 174.213 118.385 174.657C118.171 175.508 118.675 176.258 119.209 177.052C119.79 177.915 120.406 178.83 120.173 179.987C120.173 180.857 119.83 181.659 119.494 182.446C118.971 183.668 118.464 184.854 119.279 186.205C119.911 187.252 120.344 187.608 120.673 187.878C121.041 188.181 121.278 188.375 121.514 189.314C121.961 191.091 122.408 191.979 123.749 192.423C124.082 192.589 124.539 192.693 125.027 192.804C125.851 192.991 126.764 193.198 127.325 193.756C127.772 194.644 129.56 192.868 128.666 191.979C128.409 191.724 128.115 191.541 127.836 191.369C127.148 190.944 126.56 190.58 126.878 189.314C127.03 188.559 127.286 188.009 127.486 187.577C127.875 186.74 128.058 186.347 126.878 185.761C125.09 184.873 125.537 183.54 126.431 183.54C126.878 183.54 128.666 183.096 127.325 181.764C125.984 180.875 125.537 180.431 126.431 180.431C126.583 180.431 126.798 180.457 127.065 180.488C128.373 180.643 130.909 180.943 133.136 179.099C135.818 176.434 138.053 173.325 138.053 173.325C138.053 173.325 138.947 171.548 138.5 169.771C138.053 167.995 139.394 167.551 142.076 167.551C144.311 167.995 144.311 166.662 144.311 166.662C144.311 166.662 146.546 168.883 146.993 160C146.993 160 146.993 158.668 149.675 157.335C152.357 156.003 150.122 152.894 148.781 152.894C148.781 152.894 148.334 151.117 146.993 150.673C146.449 150.493 145.686 150.459 144.881 150.423C143.699 150.37 142.426 150.313 141.629 149.785L138.947 148.008C138.947 148.008 140.288 141.79 134.477 141.79C134.477 141.79 133.583 137.348 130.454 137.348C129.475 137.348 128.758 137.392 128.222 137.424C127.045 137.496 126.738 137.514 126.431 136.904C126.35 136.742 126.268 136.521 126.176 136.27C125.761 135.147 125.129 133.432 123.302 133.795C122.296 133.995 121.652 134.645 121.044 135.259C120.302 136.009 119.614 136.704 118.385 136.46C118.037 136.391 117.678 136.332 117.324 136.275C115.402 135.962 113.608 135.67 114.362 133.795C114.809 131.574 115.256 129.353 112.128 129.353C112.128 129.353 111.233 128.909 112.574 128.021C113.915 127.133 113.468 125.356 112.574 125.356C112.127 125.356 111.345 125.8 110.563 126.244C109.781 126.689 108.999 127.133 108.552 127.133C107.658 127.133 104.082 126.688 105.87 122.247C107.658 117.805 117.044 117.361 117.491 119.582C117.582 120.032 117.636 120.427 117.683 120.772C117.867 122.126 117.944 122.691 119.726 122.691C121.961 122.691 121.067 119.138 121.067 119.138L126.878 115.585C126.878 115.585 127.325 115.14 127.772 114.252C127.936 113.927 128.998 113.304 130.344 112.515C132.676 111.147 135.862 109.279 136.712 107.59C138.053 105.369 138.947 104.037 140.735 104.925C141.029 105.042 141.293 105.151 141.53 105.25C143.095 105.899 143.535 106.082 144.311 104.925C144.508 104.337 145.141 104.7 145.901 105.137C146.864 105.691 148.031 106.362 148.781 105.369C149.675 104.037 149.228 102.26 146.993 101.816C145.665 101.552 146.23 100.661 146.72 99.8885C147.055 99.3602 147.356 98.8871 146.993 98.7067C146.594 98.5085 146.017 98.7525 145.421 99.0046C144.681 99.3175 143.912 99.6428 143.417 99.1509C143.083 98.8188 143.123 98.2384 143.165 97.6417C143.235 96.6424 143.308 95.5977 141.629 95.5977C138.5 95.5977 138.5 95.5977 137.606 99.1508L137.606 99.1509C137.133 100.796 136.535 100.7 135.746 100.574C135.043 100.462 134.189 100.326 133.136 101.372C131.24 103.256 131.274 102.582 131.328 101.521C131.338 101.332 131.348 101.13 131.348 100.928C130.901 99.595 129.56 98.2626 127.772 98.2626C125.984 98.2626 126.878 95.1535 129.113 94.7094C131.348 94.2652 134.477 92.9327 134.477 92.9327C134.477 92.9327 134.924 94.7093 136.265 94.2652C138.053 93.821 138.5 92.0444 138.5 92.0444L140.288 92.4886L141.629 91.1561C142.076 91.1561 145.652 91.6003 145.652 91.6003C145.652 91.6003 147.44 91.6003 145.652 92.4886C144.896 92.864 144.22 92.9221 143.725 92.9646C143.05 93.0227 142.712 93.0518 142.97 93.8211C143.26 94.9737 143.362 95.0046 143.763 95.1267C143.981 95.1928 144.287 95.2857 144.758 95.5977C146.099 96.9301 147.887 96.4859 148.334 95.1535C148.334 95.1535 151.016 96.0418 151.462 94.7094C151.909 92.9327 150.569 92.4886 150.569 92.4886C150.569 92.4886 150.122 90.2678 147.887 88.9353C145.652 87.6029 139.841 86.2704 139.394 89.3795C138.947 92.4886 136.712 90.2678 136.712 90.2678C136.712 90.2678 138.053 89.3795 138.5 88.047C138.947 86.2704 134.03 85.3821 134.03 87.1587C134.03 87.5849 134.121 87.9656 134.202 88.3008C134.373 89.0139 134.495 89.5215 133.583 89.8236C132.83 90.073 132.218 90.1824 131.509 90.309C130.956 90.4078 130.344 90.5172 129.56 90.7119C128.219 90.7119 127.772 88.9353 127.772 88.9353C127.772 88.9353 129.113 88.9353 130.454 88.4912C132.242 88.047 133.136 86.2704 131.348 85.8263C130.615 85.6441 130.483 85.8355 130.305 86.0941C130.049 86.4659 129.698 86.9765 127.325 86.7146C127.325 86.7146 126.878 86.7146 126.431 85.3821C125.984 84.0496 121.961 83.1613 120.62 84.4938C119.279 85.8263 120.173 86.7146 121.067 87.1587C121.701 87.3686 121.636 87.6776 121.58 87.9452C121.517 88.244 121.465 88.4912 122.408 88.4912C122.872 88.6065 123.276 88.6919 123.612 88.7629C124.57 88.9653 124.974 89.0507 124.643 89.3795C124.196 89.8237 118.319 88.4913 115.257 85.3825L115.258 85.3797C115.258 85.3797 112.088 82.5464 109.919 80.696C109.008 79.9188 108.238 79.3168 107.891 79.174C107.723 79.1051 107.524 79.0036 107.298 78.8881C106.775 78.621 106.106 78.2789 105.334 78.092C104.211 77.8203 103.144 77.8236 102.271 77.8264C102.186 77.8266 102.102 77.8269 102.021 77.8269L102.021 77.8269C101.106 77.8269 100.844 77.8269 100.32 78.092C100.01 78.2493 99.7766 78.4693 99.5618 78.6719C99.3216 78.8983 99.1045 79.103 98.8288 79.174C98.484 79.2628 98.1552 79.1285 97.7365 78.9575C97.0729 78.6866 96.1837 78.3235 94.6481 78.6099C93.3673 78.8488 92.9793 79.186 92.5807 79.5324C92.1998 79.8635 91.8092 80.203 90.6203 80.4732C90.3709 80.53 90.1229 80.5708 89.8657 80.6131C89.0472 80.7479 88.1359 80.8979 86.7886 81.6243C84.6925 82.7545 83.9629 82.326 83.3209 81.949C83.0641 81.7982 82.8213 81.6556 82.5107 81.6243C80.4588 81.4176 80.3958 83.0882 81.3737 84.1973C81.8293 85.3009 81.0281 85.4944 80.1278 85.7119C79.7216 85.81 79.2952 85.913 78.955 86.1066Z" fill="white"/>
<path d="M137.159 110.255C137.159 110.255 135.371 110.699 136.265 111.587C137.159 112.92 138.947 112.031 137.159 110.255Z" fill="white"/>
<path d="M139.394 107.59C139.394 107.59 138.5 107.146 138.5 108.478C138.5 109.366 140.288 110.255 140.735 109.367C141.182 108.478 139.394 107.59 139.394 107.59Z" fill="white"/>
<path d="M142.076 109.367C142.076 109.367 141.182 110.255 140.288 110.255C139.394 110.255 138.053 110.255 138.947 111.587C139.394 113.364 141.182 111.587 141.182 111.587C141.182 111.587 144.311 111.143 142.076 109.367Z" fill="white"/>
<path d="M145.652 108.034C145.652 108.034 142.97 107.59 143.864 109.811C143.864 109.811 144.758 110.255 145.652 111.143C146.546 112.031 148.334 112.031 148.334 111.143C148.781 109.811 148.334 108.034 145.652 108.034Z" fill="white"/>
<path d="M172.024 107.146C172.024 107.146 169.342 108.478 171.577 110.255C173.365 112.476 174.259 107.59 175.153 108.034C176.047 108.478 176.047 109.366 175.6 109.811C174.706 110.255 173.365 111.143 174.706 111.587C176.047 112.031 179.176 112.476 179.176 110.699C179.176 108.922 177.835 108.478 177.835 108.478C177.835 108.478 176.494 106.702 177.388 105.369C177.388 105.369 177.388 104.037 176.047 104.037C174.259 104.037 174.259 106.702 174.259 106.702C173.365 107.146 172.024 107.146 172.024 107.146Z" fill="white"/>
<path fill-rule="evenodd" clip-rule="evenodd" d="M167.107 125.356C168.895 122.247 173.812 124.024 173.812 124.024C186.328 121.359 181.858 127.133 181.858 127.133C181.858 127.133 183.199 127.133 184.54 127.577C185.009 127.732 185.15 127.996 185.288 128.255C185.544 128.736 185.791 129.198 188.116 128.909C191.692 128.465 193.479 128.909 193.926 130.686C194.373 132.018 199.737 131.574 199.737 131.574C200.08 134.295 200.228 136.928 200.212 139.471C200.264 139.777 200.315 140.057 200.361 140.297C200.506 140.504 200.883 140.943 201.231 141.043C201.579 141.142 202.039 142.079 202.225 142.534C202.432 142.928 202.797 143.815 202.598 144.212C202.587 144.235 202.574 144.26 202.561 144.285C202.296 144.798 201.853 145.654 205.677 144.647C209.352 143.679 209.447 143.911 209.819 144.817C209.853 144.9 209.89 144.988 209.932 145.082C210.357 146.039 206.872 150.224 205.427 151.959C205.183 152.253 204.997 152.476 204.898 152.602C204.401 153.234 203.379 153.834 202.738 154.21C202.497 154.351 202.31 154.461 202.225 154.529C201.977 154.728 200.547 156.89 199.864 157.947C199.657 158.175 199.292 159.09 199.491 160.93C199.69 162.769 200.154 163.602 200.361 163.789C200.63 164.804 201.181 166.958 201.231 167.455C201.293 168.077 200.174 169.817 199.864 170.065C199.615 170.264 197.73 171.888 196.819 172.676C197.088 173.401 197.664 174.925 197.813 175.224C197.999 175.596 197.44 177.274 197.191 177.647C196.993 177.946 196.487 178.725 196.259 179.077C196.156 179.864 195.861 181.873 195.513 183.613C195.165 185.354 192.883 186.659 191.785 187.094C190.935 187.239 188.466 187.69 185.384 188.337C182.475 188.946 181.302 187.786 180.527 187.02C180.275 186.771 180.066 186.564 179.852 186.472C179.156 186.174 179.231 184.732 179.355 184.048L179.429 183.827C179.409 183.802 179.447 183.622 179.623 183.096C179.649 183.07 179.675 183.042 179.699 183.013L180.234 181.403C180.313 180.263 179.994 178.85 179.176 177.766C177.835 175.99 179.176 171.548 179.176 171.548C177.388 169.327 176.941 167.107 179.176 165.33C181.411 163.553 180.07 160.888 178.282 157.779C176.864 155.315 177.975 153.129 178.719 151.665C178.914 151.282 179.083 150.949 179.176 150.673C179.406 149.986 178.33 149.889 177.049 149.774C175.846 149.666 174.462 149.542 173.812 148.896C172.471 147.564 171.577 147.564 170.683 148.896C169.342 150.229 164.425 149.785 162.637 148.896C160.849 148.008 158.614 144.011 157.72 142.234C156.826 140.457 157.72 137.348 159.508 136.46C161.296 135.127 159.955 134.239 159.955 134.239C159.955 134.239 156.826 131.574 161.296 130.242C165.201 129.184 165.441 128.686 166.27 126.969C166.484 126.524 166.739 125.996 167.107 125.356ZM258.965 155.585C258.593 155.088 258.779 152.478 259.587 152.851C260.146 153.109 260.349 152.723 260.523 152.392C260.6 152.244 260.672 152.107 260.768 152.043C261.161 151.777 261.499 151.251 261.755 150.853L261.755 150.853C261.886 150.649 261.996 150.479 262.08 150.394C262.111 150.363 262.163 150.297 262.234 150.206C262.618 149.717 263.551 148.524 264.683 148.438C265.263 148.563 266.423 148.923 266.423 149.37C266.423 149.818 265.843 150.51 265.553 150.8C265.291 151.252 265.341 151.4 265.459 151.749C265.488 151.833 265.52 151.928 265.553 152.043C265.63 152.312 265.708 152.468 265.788 152.628C265.892 152.837 265.999 153.052 266.112 153.534C266.02 154.339 265.676 154.734 265.466 154.974L265.466 154.974L265.466 154.974C265.4 155.049 265.348 155.109 265.321 155.162C265.14 155.512 265.121 155.923 265.102 156.329C265.068 157.045 265.035 157.746 264.124 158.071C263.003 158.47 262.189 158.244 261.769 158.127C261.653 158.095 261.567 158.071 261.513 158.071C261.265 158.071 260.257 157.717 259.587 156.952C258.917 156.187 258.965 155.585 258.965 155.585ZM279.909 157.512C279.511 157.959 278.956 158.071 278.728 158.071C278.593 157.85 278.46 157.58 278.318 157.294C277.782 156.207 277.135 154.896 275.869 155.212C276.058 155.617 276.153 156.218 276.249 156.83C276.382 157.673 276.517 158.535 276.906 158.931C277.497 159.531 277.867 159.849 278.27 160.038C278.724 160.377 278.742 160.401 278.932 160.657L278.932 160.657C278.968 160.706 279.01 160.762 279.062 160.831C279.507 161.415 279.546 161.596 279.546 162.471C279.546 163.345 280.77 163.345 281.429 163.345C281.789 163.345 282.19 163.74 282.585 164.127C282.898 164.435 283.206 164.737 283.486 164.837C284.124 165.063 284.284 164.743 284.284 164.554C284.284 164.185 284.397 163.427 284.85 163.345C285.415 163.242 285.647 163.448 286.033 164.297C286.341 164.976 286.676 165.54 286.804 165.737C286.984 166.089 287.54 166.853 288.322 167.1C289.104 167.347 289.059 166.774 288.939 166.457C288.622 165.951 287.915 164.863 287.627 164.554C287.267 164.168 286.29 162.599 286.804 162.651C287.319 162.702 287.396 161.853 287.344 161.699C287.21 161.296 286.95 161.088 286.695 160.884C286.395 160.644 286.103 160.411 286.033 159.873C285.971 159.4 284.841 158.474 284.284 158.071C283.846 157.885 282.751 157.4 281.866 156.952C280.845 156.436 280.465 156.873 280.021 157.383L279.96 157.454L279.932 157.485L279.909 157.512ZM259.377 185.577C259.806 184.166 260.066 183.31 259.587 182.139C258.965 180.62 259.386 177.826 259.746 177.363C259.859 177.218 259.97 176.964 260.092 176.682C260.359 176.067 260.683 175.323 261.212 175.305C261.83 175.285 263.184 174.782 263.784 174.534L265.508 174.148C266.039 173.916 267.159 173.335 267.385 172.862C267.502 172.618 267.579 172.339 267.653 172.072C267.759 171.691 267.858 171.335 268.054 171.138C268.322 170.871 269.04 170.701 269.366 170.65C269.563 170.35 270.014 169.698 270.24 169.492C270.523 169.235 271.526 168.798 271.912 169.055C272.221 169.261 272.332 169.621 272.349 169.775H273.275C273.404 169.347 273.813 168.462 274.227 168.103C274.603 167.777 274.631 167.706 274.603 167.508C274.595 167.445 274.564 167.399 274.528 167.345C274.451 167.23 274.353 167.083 274.411 166.673C274.468 166.269 274.975 166.232 275.296 166.426C275.604 166.613 275.934 166.522 276.191 166.45C276.389 166.396 276.544 166.353 276.614 166.457C276.778 166.704 276.885 166.834 277.082 166.946C277.416 166.997 278.121 167.1 278.265 167.1C278.316 167.1 278.37 167.01 278.438 166.895C278.504 166.786 278.583 166.653 278.686 166.557C278.78 166.468 278.885 166.381 279.062 166.457C279.24 166.534 279.32 166.871 279.191 167.1C279.151 167.172 279.065 167.44 278.952 167.793C278.707 168.561 278.332 169.736 278.008 170.187C277.535 170.845 277.811 171.096 278.008 171.138L279.062 172.116L279.808 173.453H280.683C280.829 173.333 281.182 172.898 281.429 172.116C281.696 171.27 281.809 170.462 281.851 170.16L281.851 170.16V170.16C281.858 170.113 281.863 170.079 281.866 170.058C281.887 169.935 282.612 167.932 282.972 166.946C283.075 166.783 283.322 166.488 283.486 166.612C283.651 166.735 283.555 167.538 283.486 167.923L283.641 170.187L284.129 171.138V172.862C284.078 173.779 284.006 175.809 284.129 176.591C284.253 177.373 284.747 178.323 284.978 178.7C285.141 179.386 285.451 181.067 285.39 182.301C285.313 183.844 285.055 188.011 282.149 190.609C281.211 191.447 280.2 192.435 279.286 193.327L279.285 193.328L279.285 193.328C277.934 194.648 276.793 195.761 276.413 195.882C276.247 195.934 276.099 195.994 275.953 196.052C275.539 196.218 275.146 196.375 274.433 196.345C273.682 196.313 273.202 195.666 272.816 195.147C272.705 194.998 272.603 194.86 272.504 194.75C272.315 194.21 271.994 193.027 272.221 192.615C272.426 192.243 272.334 191.951 272.268 191.741C272.242 191.66 272.221 191.592 272.221 191.535C272.221 191.329 271.475 191.381 271.14 191.715C270.806 192.049 270.42 191.278 270.497 190.943C270.538 190.766 270.622 190.481 270.7 190.218L270.7 190.217L270.701 190.216L270.701 190.216L270.701 190.215C270.77 189.982 270.833 189.766 270.858 189.657C270.87 189.602 270.892 189.539 270.92 189.464C271.006 189.223 271.14 188.851 271.14 188.165C271.14 187.445 270.403 186.837 270.035 186.622C269.829 186.502 269.196 186.298 268.311 186.442C267.718 186.539 267.279 186.547 266.921 186.553C266.613 186.558 266.363 186.563 266.125 186.622C265.891 186.681 265.672 186.693 265.455 186.706C265.196 186.72 264.939 186.735 264.659 186.828C264.469 186.891 264.387 187.044 264.301 187.203C264.155 187.475 264 187.762 263.285 187.642C262.556 187.519 262.222 187.38 261.982 187.28C261.85 187.225 261.746 187.182 261.622 187.161C261.403 187.123 261.146 187.315 260.867 187.523C260.697 187.65 260.52 187.782 260.339 187.872C259.857 188.113 258.965 188.04 258.965 186.999C259.107 186.461 259.249 185.994 259.377 185.577Z" fill="white"/>
<path fill-rule="evenodd" clip-rule="evenodd" d="M186.753 101.529C186.121 101.781 184.873 102.119 184.736 101.518C184.656 101.173 184.577 101.02 184.512 100.894C184.433 100.743 184.374 100.629 184.358 100.265C184.333 99.68 184.687 99.6303 184.989 99.5878C185.032 99.5818 185.073 99.576 185.113 99.5689C185.284 99.5377 185.456 99.6323 185.618 99.7219C185.758 99.799 185.891 99.8724 186.012 99.859C186.221 99.8358 186.795 99.4432 187.056 99.2498C187.24 99.1531 187.764 98.9597 188.391 98.9597C189.174 98.9597 189.58 98.7566 189.957 98.2635C190.089 98.0907 190.143 97.9571 190.19 97.8415C190.276 97.627 190.337 97.4743 190.827 97.2482C191.582 96.9001 191.959 97.0741 192.278 97.2482C192.597 97.4222 192.771 98.3796 191.988 98.6696C191.361 98.9017 190.644 99.5592 190.363 99.859C189.909 100.352 189.023 101.454 189.116 101.919C189.232 102.499 189.841 102.963 190.827 102.847C191.814 102.731 193.206 102.006 194.482 100.932C195.381 100.177 195.503 99.3921 195.578 98.913C195.609 98.7117 195.632 98.5642 195.701 98.4956C195.76 98.4363 195.783 98.3372 195.812 98.2163C195.895 97.8639 196.021 97.3259 197.209 97.0451C197.95 96.8701 198.209 96.8076 198.472 96.7879C198.775 96.7652 199.082 96.7996 200.139 96.7841C202.112 96.7551 203.098 96.1169 203.91 95.4497C204.56 94.9159 205.359 94.415 205.677 94.2313C206.123 94.0476 207.229 93.6917 208.087 93.7381C208.293 93.7493 208.536 93.7444 208.802 93.7391C209.928 93.7166 211.477 93.6857 212.439 94.8115C212.766 95.1943 213.072 95.4942 213.327 95.7434C213.998 96.4004 214.309 96.7048 213.688 97.2482C213.003 97.8477 211.526 97.1886 210.874 96.7841C210.112 96.8421 209.046 97.2192 210.874 98.2635C212.641 99.2737 213.432 98.8594 213.888 98.6203C214.021 98.5505 214.126 98.4956 214.218 98.4956C214.353 98.4956 214.451 98.4284 214.591 98.3339C214.874 98.1413 215.325 97.835 216.584 97.7529C217.323 97.7047 217.923 97.538 218.475 97.3844C219.326 97.1478 220.066 96.9422 221.03 97.2482C221.809 97.4953 221.991 97.3552 222.277 97.1346C222.419 97.0251 222.587 96.8958 222.866 96.7841C224.301 97.2942 224.289 96.5782 224.276 95.7761C224.264 95.04 224.251 94.2313 225.354 94.2313C227.811 94.2313 230 93.007 232.166 91.795C233.263 91.1818 234.353 90.5718 235.47 90.125C235.905 90.125 236.784 90.329 236.816 91.1448C236.849 91.9606 237.319 91.8654 237.551 91.7159C238.57 91.7023 240.642 91.365 240.773 90.125C241.01 87.8686 242.533 87.8937 244.267 87.9223C244.606 87.9278 244.953 87.9336 245.301 87.9224C247.283 87.8584 250.357 87.666 250.032 85.3933C250.018 85.2943 250.002 85.1964 249.985 85.0992C249.906 84.6358 249.83 84.1859 250.032 83.6801C250.228 83.1906 250.739 82.7963 250.971 82.6604L252.194 81.8446L252.398 81.3143H253.418C254.092 81.5439 255.237 82.2021 254.429 82.9976C253.418 83.9919 255.547 84.7998 256.107 84.862C256.175 84.8695 256.278 84.8784 256.404 84.8892C257.106 84.9496 258.538 85.0727 258.841 85.3933C259.094 85.6616 259.189 85.857 259.324 86.137C259.379 86.252 259.442 86.3811 259.525 86.5355C259.649 86.7661 259.982 87.0442 260.35 87.3512C260.828 87.7499 261.364 88.1974 261.576 88.6529C261.788 89.1089 261.596 89.7535 261.424 90.3328C261.291 90.7777 261.17 91.184 261.253 91.4367C261.366 91.7853 261.893 92.0001 262.532 92.2607C262.959 92.435 263.437 92.6298 263.875 92.8988C264.696 93.4029 265.54 94.724 266.19 95.7428C266.623 96.4203 266.97 96.964 267.169 97.0451C267.666 97.2482 269.22 98.0314 269.22 98.2635C269.22 98.3247 269.332 98.5107 269.475 98.747C269.873 99.4065 270.508 100.457 269.593 100.274C268.527 100.061 267.233 98.84 266.651 98.2902C266.554 98.1987 266.476 98.1257 266.423 98.0792C266.253 97.9305 265.825 97.6954 265.357 97.4379C264.797 97.1303 264.18 96.7909 263.875 96.5291C263.575 96.2714 263.043 95.5738 262.556 94.936C262.135 94.3843 261.749 93.8773 261.576 93.7381C261.498 93.6758 261.376 93.5588 261.224 93.4135C260.569 92.7886 259.368 91.6408 258.841 92.071C258.406 92.4261 258.68 93.2566 259.276 94.2313C260.022 95.4497 260.159 96.1538 259.391 96.5291C259.103 96.6703 258.843 96.7654 258.618 96.848C257.771 97.1588 257.407 97.2921 257.785 99.0315C257.785 99.0315 258.634 101.057 259.525 101.144C259.895 101.181 260.108 101.009 260.331 100.83C260.643 100.578 260.975 100.311 261.788 100.581C262.806 100.918 268.633 104.551 268.163 106.118C268.143 106.186 268.124 106.252 268.106 106.317C267.955 106.852 267.834 107.284 267.169 107.173C266.572 107.073 265.594 107.421 265.18 107.608C265.056 107.628 264.467 107.962 264.417 108.608C264.412 108.669 264.408 108.726 264.403 108.779C264.351 109.428 264.343 109.524 264.745 110.156C264.745 111.021 264.295 111.615 263.904 112.13C263.666 112.444 263.449 112.729 263.37 113.029C263.16 113.821 263.875 115.873 263.875 115.873C264.973 116.66 267.169 118.533 267.169 119.726C267.169 120.92 266.706 121.28 265.864 121.28C265.216 121.28 264.709 120.542 264.262 119.892C264.129 119.697 264 119.51 263.875 119.353C263.333 118.675 263.067 117.551 263.067 117.551C263.021 117.487 262.975 117.422 262.928 117.356C262.386 116.594 261.769 115.728 260.718 115.728C260.085 115.728 259.275 116.433 259.112 116.728C258.949 117.024 259.065 119.142 261.203 121.28C263.341 123.418 263.875 124.367 263.875 124.574C264.414 126.003 265.168 129.247 263.875 130.789C262.582 132.33 260.436 133.792 259.525 134.331L258.282 135.263C257.66 134.828 256.194 134.294 255.299 135.636C254.517 136.808 255.131 137.586 255.551 138.118C255.732 138.348 255.877 138.531 255.858 138.681C255.842 138.812 256.083 138.972 256.431 139.205C257.409 139.857 259.234 141.073 258.593 143.777C257.897 146.711 256.48 146.781 255.858 146.45L253.559 144.772C253.352 144.274 252.838 143.28 252.44 143.28H250.886C250.451 143.902 250.016 145.567 251.756 147.257C253.203 148.663 253.275 150.095 253.326 151.099C253.351 151.604 253.371 152 253.559 152.229C254.006 152.776 254.532 153.41 254.739 153.659C254.748 154.502 254.291 155.683 252.398 153.659C250.506 151.634 250.032 149.654 250.032 148.916L249.38 147.257C248.958 146.265 248.115 144.08 248.115 143.28C248.115 142.48 247.612 138.235 247.259 139.363C246.905 140.492 245.301 140.329 245.301 139.363C245.301 138.157 244.15 136.009 243.628 135.636C243.501 135.545 243.353 135.421 243.19 135.286C242.685 134.864 242.045 134.331 241.497 134.331C240.918 134.331 239.379 135.201 238.682 135.636C237.941 136.845 236.1 139.424 234.66 140.067C233.22 140.711 233.52 141.324 233.855 141.777C234.191 142.23 233.855 144.772 233.855 144.772C233.855 144.772 233.147 147.465 231.717 147.257C230.853 147.132 230.717 146.435 230.576 145.707C230.483 145.231 230.388 144.742 230.086 144.391C229.633 143.865 229.426 142.867 229.238 141.963C229.03 140.958 228.845 140.067 228.373 140.067C227.655 140.067 227.475 137.113 227.475 135.636C226.853 136.071 225.207 136.419 223.599 134.331C221.99 132.243 218.252 132.191 216.584 132.425L213.688 130.789C213.301 131.066 212.197 131.118 210.874 129.107C209.219 126.593 206.358 129.152 208.616 130.789C210.422 132.098 211.581 133.096 211.934 133.431L213.688 132.425C213.762 132.181 214.067 131.956 214.699 133.011C215.382 134.152 215.569 134.129 215.794 134.102C215.83 134.098 215.867 134.093 215.906 134.093C216.139 134.093 216.455 134.252 216.584 134.331C216.913 135.084 217.146 136.74 215.448 137.34C213.75 137.939 212.688 138.939 212.369 139.363L207.375 141.777C206.612 142.434 205.208 143.392 204.176 142.726C202.979 141.954 202.667 140.503 202.468 139.572C202.452 139.499 202.437 139.429 202.422 139.363C201.995 137.441 201.505 136.563 200.872 135.43C200.839 135.37 200.805 135.31 200.771 135.249C199.576 134.521 199.167 132.133 198.936 130.788C198.87 130.403 198.819 130.103 198.768 129.953C198.539 129.276 197.633 129.337 197.209 129.452C196.501 128.636 195.508 126.935 197.209 126.655C197.499 126.608 197.726 126.548 197.901 126.479C197.533 126.419 197.104 126.343 196.608 126.244C194.941 125.968 195.001 125.006 195.071 123.89C195.113 123.211 195.159 122.475 194.82 121.803C194.644 121.103 194.607 121.23 194.462 121.723C194.24 122.481 193.764 124.104 192.138 124.912C190.371 125.966 190.56 124.242 190.717 122.816C190.758 122.438 190.798 122.082 190.798 121.803C190.798 120.47 189.457 115.585 186.328 117.361C184.691 118.291 185.378 118.612 186.534 119.153C187.588 119.646 189.03 120.32 189.457 121.803C190.798 124.912 185.881 125.8 185.434 124.024C184.987 122.691 186.775 122.247 186.775 122.247C184.987 121.803 183.646 118.25 183.646 118.25C182.752 120.026 179.623 118.694 179.623 118.694C179.623 118.694 178.282 122.247 175.153 122.691C172.024 123.135 168.895 123.135 168.895 119.582C168.895 116.029 173.365 117.361 174.706 117.805C176.047 118.25 175.6 116.029 175.6 116.029C174.259 113.364 177.388 112.476 178.282 112.92C179.176 113.364 180.07 112.476 180.517 110.699C180.964 109.366 181.858 108.922 183.646 109.811C185.434 110.699 185.881 110.255 185.881 108.922C186.075 108.537 185.679 108.486 185.059 108.406C184.251 108.303 183.063 108.151 182.305 107.146C180.964 105.369 182.305 102.704 184.54 102.704C186.297 102.704 186.672 101.881 186.753 101.529Z" fill="white"/>
</g>
</svg>
