<svg width="65" height="80" viewBox="0 0 65 80" fill="none" xmlns="http://www.w3.org/2000/svg">
<g clip-path="url(#clip0_162:1058)">
<rect x="33.5" y="63.051" width="16.9489" height="3" transform="rotate(90 33.5 63.051)" fill="#8DBE22"/>
<circle cx="32.0004" cy="32.0001" r="31.2582" fill="white" stroke="#8DBE22" stroke-width="2"/>
<path fill-rule="evenodd" clip-rule="evenodd" d="M0.529961 32.9133C-0.488687 29.3601 0.0206369 25.9083 1.54861 22.6597C4.50269 24.7916 6.64184 27.5327 7.55863 31.0859C8.57728 34.6392 8.06795 38.0909 6.53998 41.3395C3.68776 39.2076 1.44674 36.4665 0.529961 32.9133Z" fill="#8DBE22"/>
<path fill-rule="evenodd" clip-rule="evenodd" d="M56.6569 32.9133C55.6383 29.3601 56.1476 25.9083 57.6756 22.6597C60.6296 24.7916 62.7688 27.5327 63.6856 31.0859C64.7042 34.6392 64.1949 38.0909 62.6669 41.3395C59.7129 39.2076 57.5737 36.4665 56.6569 32.9133Z" fill="#8DBE22"/>
<path fill-rule="evenodd" clip-rule="evenodd" d="M31.1911 0.528173C34.7564 -0.487038 38.2198 0.0205673 41.4795 1.54338C39.3403 4.48749 36.59 6.61943 33.0247 7.53312C29.4594 8.54833 25.996 8.04073 22.7363 6.51791C24.8755 3.5738 27.6258 1.44186 31.1911 0.528173Z" fill="#8DBE22"/>
<path fill-rule="evenodd" clip-rule="evenodd" d="M31.1911 56.4664C34.7564 55.4512 38.2198 55.9588 41.4795 57.4816C39.3403 60.4257 36.59 62.5577 33.0247 63.4713C29.4594 64.4866 25.996 63.979 22.7363 62.4561C24.8755 59.512 27.6258 57.3801 31.1911 56.4664Z" fill="#8DBE22"/>
<path fill-rule="evenodd" clip-rule="evenodd" d="M51.2582 8.44693C40.155 17.4823 24.0603 17.4823 12.957 8.44693L15.6055 5.80737C25.2827 13.4215 38.9326 13.4215 48.6098 5.80737L51.2582 8.44693Z" fill="#848488"/>
<path fill-rule="evenodd" clip-rule="evenodd" d="M8.57818 12.9138C17.6442 23.9796 17.6442 40.0199 8.57818 51.0857L5.92969 48.4462C13.5696 38.8017 13.5696 25.1979 5.92969 15.5534L8.57818 12.9138Z" fill="#848488"/>
<path fill-rule="evenodd" clip-rule="evenodd" d="M12.957 55.4511C24.0603 46.4157 40.155 46.4157 51.2582 55.4511L48.6098 58.0906C38.9326 50.4765 25.2827 50.4765 15.6055 58.0906L12.957 55.4511Z" fill="#848488"/>
<path fill-rule="evenodd" clip-rule="evenodd" d="M55.7409 51.0857C46.6749 40.0199 46.6749 23.9796 55.7409 12.9138L58.3894 15.5534C50.7495 25.1979 50.7495 38.8017 58.3894 48.4462L55.7409 51.0857Z" fill="#848488"/>
<path fill-rule="evenodd" clip-rule="evenodd" d="M32.1079 16.7715C40.5627 16.7715 47.3876 23.5734 47.3876 31.9996C47.3876 40.4259 40.5627 47.2278 32.1079 47.2278C23.6531 47.2278 16.8281 40.4259 16.8281 31.9996C16.8281 23.5734 23.6531 16.7715 32.1079 16.7715Z" fill="#848488"/>
<path d="M26.5064 31.6952C26.5064 31.6952 26.7102 32.2028 26.5064 32.5073C26.3027 32.8119 25.5896 32.8119 25.4878 33.5225C25.3859 34.2332 25.5896 34.5378 25.8952 35.0454C26.2008 35.553 25.9971 35.8575 26.3027 36.1621C26.7101 36.3651 27.5251 36.5682 27.3213 37.1773C27.1176 37.7864 26.812 39.0047 27.0158 39.3092C27.2195 39.6138 27.0157 39.6138 26.9139 39.9184C26.812 40.3245 27.4232 40.629 27.3213 41.1366C27.3213 41.6442 26.812 42.0503 27.1176 42.5579C27.4232 43.0655 27.5251 42.8625 27.6269 43.2686C27.7288 43.6747 27.8307 43.8777 28.1363 43.9792C28.34 44.0807 28.7474 44.0807 28.9512 44.2838C29.053 44.4868 29.4605 44.0807 29.2568 43.8777C29.053 43.6747 28.7474 43.6747 28.8493 43.2686C28.9512 42.761 29.2568 42.6594 28.8493 42.4564C28.4418 42.2534 28.5437 41.9488 28.7475 41.9488C28.8493 41.9488 29.2568 41.8473 28.9512 41.5427C28.6456 41.3397 28.5437 41.2382 28.7475 41.2382C28.9512 41.2382 29.6642 41.4412 30.2754 40.9336C30.8866 40.3245 31.3959 39.6138 31.3959 39.6138C31.3959 39.6138 31.5997 39.2077 31.4978 38.8016C31.3959 38.3956 31.7015 38.294 32.3127 38.294C32.822 38.3956 32.822 38.091 32.822 38.091C32.822 38.091 33.3314 38.5986 33.4332 36.5682C33.4332 36.5682 33.4332 36.2636 34.0444 35.959C34.6556 35.6545 34.1463 34.9438 33.8407 34.9438C33.8407 34.9438 33.7388 34.5378 33.4332 34.4362C33.1276 34.3347 32.5164 34.4362 32.2109 34.2332C31.9053 34.0302 31.5997 33.8271 31.5997 33.8271C31.5997 33.8271 31.9053 32.4058 30.581 32.4058C30.581 32.4058 30.3773 31.3906 29.6642 31.3906C28.9512 31.3906 28.8493 31.4921 28.7475 31.2891C28.6456 31.086 28.5437 30.4769 28.0344 30.5784C27.5251 30.68 27.4232 31.2891 26.9139 31.1876C26.4046 31.086 25.7934 31.086 25.9971 30.5784C26.099 30.0708 26.2008 29.5632 25.4878 29.5632C25.4878 29.5632 25.284 29.4617 25.5896 29.2587C25.8952 29.0556 25.7934 28.6495 25.5896 28.6495C25.3859 28.6495 24.8766 29.0556 24.6729 29.0556C24.4691 29.0556 23.6542 28.9541 24.0617 27.9389C24.4691 26.9237 26.6083 26.8222 26.7102 27.3298C26.812 27.8374 26.7102 28.0404 27.2195 28.0404C27.7288 28.0404 27.5251 27.2282 27.5251 27.2282L28.8493 26.4161C28.8493 26.4161 28.9512 26.3145 29.0531 26.1115C29.1549 25.9085 30.7848 25.1978 31.0903 24.5887C31.3959 24.0811 31.5997 23.7765 32.0071 23.9796C32.5165 24.1826 32.6183 24.2841 32.822 23.9796C32.9239 23.675 33.5351 24.4872 33.8407 24.0811C34.0444 23.7765 33.9426 23.3704 33.4332 23.2689C32.9239 23.1674 33.637 22.6598 33.4332 22.5583C33.2295 22.4567 32.8221 22.8628 32.6183 22.6598C32.4146 22.4568 32.822 21.8476 32.2109 21.8476C31.4978 21.8476 31.4978 21.8476 31.2941 22.6598C31.0903 23.3704 30.7847 22.6598 30.2754 23.1674C29.7661 23.675 29.868 23.3704 29.868 23.0659C29.7661 22.7613 29.4605 22.4568 29.0531 22.4568C28.6456 22.4568 28.8493 21.7461 29.3586 21.6446C29.868 21.5431 30.581 21.2385 30.581 21.2385C30.581 21.2385 30.6829 21.6446 30.9885 21.5431C31.3959 21.4415 31.4978 21.0355 31.4978 21.0355L31.9053 21.137L32.2109 20.8324C32.3127 20.8324 33.1276 20.9339 33.1276 20.9339C33.1276 20.9339 33.5351 20.9339 33.1276 21.137C32.7202 21.34 32.4146 21.137 32.5165 21.4415C32.6183 21.8476 32.6183 21.6446 32.9239 21.8476C33.2295 22.1522 33.637 22.0507 33.7388 21.7461C33.7388 21.7461 34.35 21.9491 34.4519 21.6446C34.5537 21.2385 34.2482 21.137 34.2482 21.137C34.2482 21.137 34.1463 20.6294 33.637 20.3248C33.1276 20.0202 31.8034 19.7157 31.7015 20.4263C31.5997 21.137 31.0903 20.6294 31.0903 20.6294C31.0903 20.6294 31.3959 20.4263 31.4978 20.1218C31.5997 19.7157 30.4792 19.5126 30.4792 19.9187C30.4792 20.2233 30.6829 20.4263 30.3773 20.5278C30.0717 20.6294 29.868 20.6294 29.4605 20.7309C29.1549 20.7309 29.0531 20.3248 29.0531 20.3248C29.0531 20.3248 29.3586 20.3248 29.6642 20.2233C30.0717 20.1218 30.2754 19.7157 29.868 19.6142C29.4605 19.5126 29.868 19.9187 28.9512 19.8172C28.9512 19.8172 28.8493 19.8172 28.7475 19.5126C28.6456 19.2081 27.7288 19.005 27.4232 19.3096C27.1176 19.6142 27.3213 19.8172 27.5251 19.9187C27.8307 20.0202 27.4232 20.2233 27.8307 20.2233C28.2381 20.3248 28.4418 20.3248 28.34 20.4263C28.2381 20.5279 26.2008 19.9187 26.2008 19.5126C26.2008 19.5126 22.1262 21.34 20.3945 25.1978C20.3945 25.1978 20.3945 25.4009 20.7001 25.5024C21.0057 25.6039 21.1076 25.6039 21.0057 26.1115C20.9038 26.6191 20.802 27.7358 21.4132 27.8374C22.1262 27.9389 21.7188 27.4313 21.6169 27.1267C21.4132 26.8222 21.3113 26.01 21.7188 26.213C22.1262 26.4161 21.515 26.4161 22.1262 27.5328C22.7374 28.6495 21.8206 28.548 22.5337 29.3602C23.2467 30.1723 23.6542 29.3602 23.8579 29.5632C24.0617 29.8678 23.8579 29.9693 24.3673 30.0708C24.8766 30.1724 24.6729 29.9693 24.8766 30.3754C24.9784 31.1876 25.0803 31.9997 26.5064 31.6952Z" fill="white"/>
<path d="M31.1905 25.1978C31.1905 25.1978 30.783 25.2993 30.9867 25.5023C31.1905 25.8069 31.5979 25.6038 31.1905 25.1978Z" fill="white"/>
<path d="M31.6998 24.5888C31.6998 24.5888 31.4961 24.4872 31.4961 24.7918C31.4961 24.9948 31.9036 25.1979 32.0054 24.9948C32.1073 24.7918 31.6998 24.5888 31.6998 24.5888Z" fill="white"/>
<path d="M32.3115 24.9949C32.3115 24.9949 32.1077 25.1979 31.904 25.1979C31.7003 25.1979 31.3947 25.1979 31.5984 25.5025C31.7003 25.9086 32.1078 25.5025 32.1078 25.5025C32.1078 25.5025 32.8208 25.401 32.3115 24.9949Z" fill="white"/>
<path d="M33.1268 24.6902C33.1268 24.6902 32.5156 24.5886 32.7193 25.0963C32.7193 25.0963 32.923 25.1978 33.1268 25.4008C33.3305 25.6039 33.738 25.6039 33.738 25.4008C33.8398 25.0963 33.738 24.6902 33.1268 24.6902Z" fill="white"/>
<path d="M39.5439 28.3449C39.5439 28.3449 38.4234 27.9389 38.016 28.6495C37.6085 29.3601 37.8122 29.4617 36.6917 29.7662C35.6731 30.0708 36.3861 30.6799 36.3861 30.6799C36.3861 30.6799 36.6917 30.883 36.2843 31.1875C35.8768 31.3906 35.6731 32.1012 35.8768 32.5073C36.0805 32.9134 36.5898 33.8271 36.9973 34.0301C37.4048 34.2332 38.5253 34.3347 38.8309 34.0301C39.0346 33.7256 39.2383 33.7256 39.5439 34.0301C39.8495 34.3347 40.8682 34.1316 40.7663 34.4362C40.6645 34.7408 40.1551 35.3499 40.5626 36.0605C40.97 36.7712 41.2757 37.3803 40.7663 37.7864C40.257 38.1925 40.3589 38.7001 40.7663 39.2077C40.7663 39.2077 40.4607 40.2229 40.7663 40.629C41.0719 41.0351 41.0719 41.6442 40.8682 41.8472C40.7663 42.1518 40.8682 41.9488 40.8682 41.9488C40.8682 41.9488 40.7663 42.3549 40.9701 42.1518C41.1738 41.9488 46.3689 37.3803 45.4521 30.0708C45.4521 30.0708 44.2297 30.1723 44.1279 29.8678C44.026 29.4617 43.6185 29.3602 42.8036 29.4617C41.9887 29.5632 42.2943 29.2586 41.9887 29.1571C41.6831 29.0556 41.3775 29.0556 41.3775 29.0556C41.3775 29.0556 42.3962 27.7358 39.5439 28.3449Z" fill="white"/>
<path d="M39.9518 26.5177C39.9518 26.5177 40.0537 27.0253 39.7481 26.9238C39.4425 26.8222 38.4238 26.5177 38.4238 27.3298C38.4238 28.142 39.1369 28.142 39.8499 28.0405C40.563 27.939 40.8686 27.1268 40.8686 27.1268C40.8686 27.1268 41.5816 27.4314 41.7854 27.0253C41.7854 27.0253 42.091 27.8374 42.4984 27.939C42.4984 27.939 42.091 28.0405 42.1928 28.345C42.2947 28.7511 43.4152 28.5481 43.1096 27.8374C42.9059 27.1268 41.6835 27.2283 42.3966 26.8222C43.1096 26.4161 43.4152 27.5329 43.4152 27.8374C43.4152 28.142 43.2115 28.8527 43.7208 28.5481C44.332 28.2435 44.2301 27.4314 44.332 27.8374C44.5357 28.2435 44.1283 28.7511 44.7395 28.8527C45.2488 28.9542 45.4525 28.9542 45.4525 28.9542C45.4525 28.9542 44.5357 25.4009 42.4984 23.1675C42.4984 23.1675 42.4984 23.472 41.9891 23.472C41.4798 23.472 41.1742 24.0812 41.4798 24.4873C41.7854 24.8933 42.3966 24.6903 42.2947 24.8933C42.2947 25.1979 42.1928 25.2994 41.7854 25.0964C41.3779 24.8933 41.1742 24.9949 41.0723 25.2994C40.9704 25.7055 40.7667 25.9085 40.563 25.807C40.3593 25.7055 39.6462 25.9086 39.9518 26.5177Z" fill="white"/>
<path d="M39.1366 24.4873C39.1366 24.4873 38.5254 24.7918 39.0347 25.1979C39.4422 25.7055 39.6459 24.5888 39.8496 24.6903C40.0534 24.7918 40.0534 24.9949 39.9515 25.0964C39.7478 25.1979 39.4422 25.401 39.7478 25.5025C40.0534 25.604 40.7664 25.7055 40.7664 25.2994C40.7664 24.8933 40.4608 24.7918 40.4608 24.7918C40.4608 24.7918 40.1552 24.3857 40.359 24.0812C40.359 24.0812 40.359 23.7766 40.0534 23.7766C39.6459 23.7766 39.6459 24.3857 39.6459 24.3857C39.4422 24.4873 39.1366 24.4873 39.1366 24.4873Z" fill="white"/>
</g>
<defs>
<clipPath id="clip0_162:1058">
<rect width="65" height="80" fill="white"/>
</clipPath>
</defs>
</svg>
