<svg width="48" height="48" viewBox="0 0 48 48" fill="none" xmlns="http://www.w3.org/2000/svg">
<g clip-path="url(#clip0)">
<path fill-rule="evenodd" clip-rule="evenodd" d="M15.9048 15.1581C15.3553 15.1581 14.8157 15.3639 14.4149 15.7647C14.014 16.1656 13.8082 16.7052 13.8082 17.2547C13.8082 17.802 14.0123 18.3394 14.41 18.7397L18.7828 22.9476L22.9857 18.7446C23.3866 18.3438 23.5924 17.8042 23.5924 17.2547C23.5924 16.7052 23.3866 16.1656 22.9857 15.7647C22.5849 15.3639 22.0453 15.1581 21.4958 15.1581C20.9463 15.1581 20.4067 15.3639 20.0058 15.7647L18.7003 17.0703L17.3948 15.7647C16.9939 15.3639 16.4544 15.1581 15.9048 15.1581ZM13.2948 14.6446C14.0121 13.9273 14.9635 13.574 15.9048 13.574C16.8462 13.574 17.7976 13.9273 18.5149 14.6446L18.7003 14.83L18.8857 14.6446C19.6031 13.9273 20.5544 13.574 21.4958 13.574C22.4372 13.574 23.3885 13.9273 24.1059 14.6446C24.8232 15.3619 25.1765 16.3133 25.1765 17.2547C25.1765 18.1961 24.8232 19.1474 24.1059 19.8648L18.8042 25.1665L13.3001 19.8702L13.2948 19.8648C12.5774 19.1474 12.2241 18.1961 12.2241 17.2547C12.2241 16.3133 12.5774 15.3619 13.2948 14.6446Z" fill="#848488"/>
<path d="M42.0001 47.9001C41.8001 47.9001 41.6001 47.8001 41.5001 47.7001L37.2001 44.2001H29.2001C25.9001 44.2001 23.3001 41.5001 23.3001 38.3001V36.6001H23.2001C21.7001 37.0001 20.2001 37.1001 18.7001 37.1001C15.2001 37.1001 11.7001 36.1001 8.8001 34.2001H8.7001L4.6001 37.0001C4.4001 37.0001 4.2001 37.1001 4.0001 37.1001C3.9001 37.1001 3.7001 37.1001 3.6001 37.0001C3.3001 36.9001 3.2001 36.6001 3.2001 36.3001V28.9001C1.2001 25.8001 0.100098 22.3001 0.100098 18.6001C0.100098 8.4001 8.4001 0.100098 18.6001 0.100098C28.8001 0.100098 37.1001 8.4001 37.1001 18.6001C37.1001 20.1001 36.9001 21.6001 36.6001 23.0001V23.1001H42.1001C45.4001 23.1001 48.0001 25.8001 48.0001 29.0001V38.1001C48.0001 41.0001 45.9001 43.5001 43.0001 44.0001H42.9001V47.0001C42.9001 47.3001 42.7001 47.6001 42.4001 47.8001C42.2001 47.9001 42.1001 47.9001 42.0001 47.9001ZM29.1001 24.8001C26.7001 24.8001 24.8001 26.7001 24.8001 29.1001V38.2001C24.8001 40.6001 26.7001 42.5001 29.1001 42.5001H37.4001C37.6001 42.5001 37.8001 42.6001 37.9001 42.7001L41.1001 45.3001V43.3001C41.1001 42.8001 41.5001 42.5001 41.9001 42.5001C44.2001 42.5001 46.1001 40.6001 46.1001 38.2001V29.1001C46.1001 26.7001 44.2001 24.8001 41.8001 24.8001H29.1001ZM8.6001 32.3001C8.8001 32.3001 8.9001 32.4001 9.1001 32.4001C11.9001 34.3001 15.2001 35.3001 18.6001 35.3001C20.1001 35.3001 21.7001 35.1001 23.1001 34.7001H23.2001V29.0001C23.2001 25.7001 25.9001 23.1001 29.1001 23.1001H34.7001V23.0001C35.1001 21.5001 35.3001 20.0001 35.3001 18.5001C35.3001 9.2001 27.8001 1.7001 18.5001 1.7001C9.2001 1.7001 1.8001 9.3001 1.8001 18.6001C1.8001 22.0001 2.8001 25.3001 4.7001 28.1001C4.8001 28.2001 4.8001 28.4001 4.8001 28.6001V34.7001L8.1001 32.5001C8.3001 32.4001 8.4001 32.3001 8.6001 32.3001Z" fill="#848488"/>
<path d="M30.6003 34.5001C30.4003 34.5001 30.2003 34.4001 30.0003 34.3001C29.8003 34.1001 29.8003 33.9001 29.8003 33.7001C29.8003 33.5001 29.9003 33.3001 30.0003 33.1001C30.2003 32.9001 30.4003 32.9001 30.6003 32.9001C30.8003 32.9001 31.0003 33.0001 31.2003 33.1001C31.4003 33.3001 31.4003 33.5001 31.4003 33.7001C31.4003 33.9001 31.3003 34.1001 31.2003 34.3001C31.0003 34.4001 30.8003 34.5001 30.6003 34.5001Z" fill="#848488"/>
<path d="M35.5002 34.5001C35.3002 34.5001 35.1002 34.4001 34.9002 34.3001C34.7002 34.1001 34.7002 33.9001 34.7002 33.7001C34.7002 33.5001 34.8002 33.3001 34.9002 33.1001C35.1002 32.9001 35.3002 32.9001 35.5002 32.9001C35.7002 32.9001 35.9002 33.0001 36.1002 33.1001C36.3002 33.3001 36.3002 33.5001 36.3002 33.7001C36.3002 33.9001 36.2002 34.1001 36.1002 34.3001C36.0002 34.4001 35.8002 34.5001 35.5002 34.5001Z" fill="#848488"/>
<path d="M40.5002 34.5001C40.3002 34.5001 40.1002 34.4001 39.9002 34.3001C39.7002 34.1001 39.7002 33.9001 39.7002 33.7001C39.7002 33.5001 39.8002 33.3001 39.9002 33.1001C40.1002 32.9001 40.3002 32.9001 40.5002 32.9001C40.7002 32.9001 40.9002 33.0001 41.1002 33.1001C41.3002 33.3001 41.3002 33.5001 41.3002 33.7001C41.3002 33.9001 41.2002 34.1001 41.1002 34.3001C40.9002 34.4001 40.7002 34.5001 40.5002 34.5001Z" fill="#848488"/>
</g>
<defs>
<clipPath id="clip0">
<rect width="48" height="48" fill="white"/>
</clipPath>
</defs>
</svg>
