<svg width="48" height="48" viewBox="0 0 48 48" fill="none" xmlns="http://www.w3.org/2000/svg">
<g clip-path="url(#clip0)">
<path d="M27.9002 45.7998C27.6002 45.7998 27.3002 45.6998 27.0002 45.5998L18.1002 41.9998H7.80019C6.50019 41.9998 5.50019 40.9998 5.50019 39.6998V37.9998C5.50019 37.5998 5.80019 37.2998 6.20019 37.2998C6.60019 37.2998 6.90019 37.5998 6.90019 37.9998V39.6998C6.90019 40.1998 7.30019 40.4998 7.70019 40.4998H14.2002L13.7002 40.1998C12.3002 39.5998 11.1002 38.6998 10.1002 37.4998L10.0002 37.2998C9.90019 37.1998 9.80019 37.0998 9.70019 36.8998C9.60019 36.7998 9.50019 36.6998 9.40019 36.5998C8.80019 35.9998 8.00019 35.4998 7.20019 35.1998L6.40019 34.9998C6.10019 35.5998 5.60019 35.8998 5.00019 35.8998C4.80019 35.8998 4.60019 35.8998 4.50019 35.7998L0.800192 34.2998C0.100192 33.9998 -0.299808 33.1998 0.000191733 32.4998L4.50019 21.4998C4.70019 20.9998 5.00019 20.7998 5.30019 20.5998C5.50019 20.4998 5.70019 20.4998 5.80019 20.4998C6.00019 20.4998 6.20019 20.4998 6.30019 20.5998L10.0002 22.0998C10.3002 22.1998 10.5002 22.3998 10.6002 22.5998C10.7002 22.6998 10.7002 22.7998 10.7002 22.7998C10.8002 23.0998 10.8002 23.4998 10.7002 23.8998L10.6002 24.1998C10.8002 24.2998 10.9002 24.2998 11.1002 24.2998C11.8002 24.2998 13.5002 24.0998 17.5002 23.3998L19.5002 22.9998C23.5002 22.1998 27.3002 21.3998 27.3002 21.3998C27.5002 21.3998 27.6002 21.2998 27.8002 21.2998C28.3002 21.2998 28.8002 21.4998 29.3002 21.7998C29.7002 22.0998 29.9002 22.4998 30.1002 22.8998C30.5002 24.0998 29.8002 25.3998 28.6002 25.7998L23.9002 27.2998L34.3002 31.5998C34.4002 31.5998 34.5002 31.6998 34.5002 31.6998C35.0002 31.9998 35.4002 32.3998 35.6002 32.8998C35.9002 33.4998 35.9002 34.1998 35.6002 34.7998C35.5002 35.0998 35.3002 35.3998 35.0002 35.6998C35.0002 35.7998 35.2002 35.8998 35.2002 35.8998C35.3002 35.8998 35.3002 35.9998 35.3002 35.9998C35.4002 36.0998 35.4002 36.0998 35.4002 36.1998C35.5002 36.2998 35.5002 36.2998 35.5002 36.3998C35.5002 36.4998 35.6002 36.4998 35.6002 36.5998C35.6002 36.6998 35.7002 36.6998 35.7002 36.7998C35.7002 36.8998 35.8002 36.8998 35.8002 36.9998C36.1002 37.5998 36.1002 38.2998 35.8002 38.8998C35.5002 39.5998 34.9002 40.1998 34.1002 40.3998L45.4002 40.4998C45.9002 40.4998 46.2002 40.0998 46.2002 39.6998V8.9998H32.2002V19.3998C32.2002 19.7998 31.9002 20.1998 31.6002 20.3998C31.5002 20.4998 31.3002 20.4998 31.2002 20.4998C30.9002 20.4998 30.7002 20.3998 30.5002 20.1998L26.8002 16.9998L23.2002 20.1998C23.0002 20.3998 22.7002 20.4998 22.5002 20.4998C22.3002 20.4998 22.2002 20.4998 22.1002 20.3998C21.7002 20.1998 21.5002 19.7998 21.5002 19.3998V8.9998H7.00019V18.2998C7.00019 18.6998 6.70019 18.9998 6.30019 18.9998C5.90019 18.9998 5.60019 18.6998 5.60019 18.2998V8.1998V8.0998L7.40019 3.0998C7.60019 2.5998 8.10019 2.2998 8.60019 2.2998H36.3002C36.7002 2.2998 37.0002 2.5998 37.0002 2.9998C37.0002 3.3998 36.7002 3.6998 36.3002 3.6998H31.1002L32.0002 7.4998H46.2002L44.8002 3.6998H41.4002C41.0002 3.6998 40.7002 3.3998 40.7002 2.9998C40.7002 2.5998 41.0002 2.2998 41.4002 2.2998H44.9002C45.4002 2.2998 45.9002 2.5998 46.1002 3.0998L48.0002 7.9998V8.0998V39.6998C48.0002 40.9998 47.0002 41.9998 45.7002 41.9998H32.7002C32.5002 42.3998 32.1002 42.6998 31.7002 42.8998C31.4002 42.9998 31.0002 43.0998 30.7002 43.0998C30.6002 43.0998 30.5002 43.0998 30.5002 43.0998C30.5002 43.4998 30.4002 43.8998 30.3002 44.2998C29.8002 45.0998 28.9002 45.7998 27.9002 45.7998ZM10.2002 25.6998L7.00019 33.5998L7.80019 33.9998C8.80019 34.3998 9.70019 34.9998 10.4002 35.6998C10.7002 35.9998 11.1002 36.3998 11.4002 36.6998C11.7002 37.0998 12.0002 37.3998 12.4002 37.6998C13.0002 38.1998 13.7002 38.5998 14.4002 38.8998L27.5002 44.2998C27.6002 44.3998 27.8002 44.3998 27.9002 44.3998C28.3002 44.3998 28.7002 44.0998 28.9002 43.6998C29.0002 43.3998 29.0002 43.1998 28.9002 42.8998C28.8002 42.5998 28.6002 42.3998 28.3002 42.2998L21.6002 39.5998C21.4002 39.4998 21.3002 39.3998 21.2002 39.1998C21.1002 38.9998 21.1002 38.7998 21.2002 38.5998C21.3002 38.2998 21.6002 38.0998 21.9002 38.0998C22.0002 38.0998 22.1002 38.0998 22.2002 38.1998L30.4002 41.4998C30.5002 41.5998 30.7002 41.5998 30.8002 41.5998C31.0002 41.5998 31.1002 41.5998 31.2002 41.4998C31.4002 41.3998 31.6002 41.1998 31.7002 40.9998H31.8002L31.7002 40.8998H31.8002L31.7002 40.7998H31.8002L31.7002 40.6998H31.8002L31.7002 40.5998L31.8002 40.4998H31.6002V40.3998L31.7002 40.2998L31.6002 39.9998V39.8998L31.5002 39.7998L31.4002 39.6998V39.5998H31.2002L31.3002 39.4998L31.1002 39.5998L22.9002 36.1998C22.5002 35.9998 22.3002 35.5998 22.5002 35.1998C22.6002 34.8998 22.9002 34.6998 23.2002 34.6998C23.3002 34.6998 23.4002 34.6998 23.5002 34.7998L33.4002 38.7998C33.5002 38.7998 33.5002 38.7998 33.6002 38.8998C33.7002 38.8998 33.7002 38.8998 33.8002 38.8998C34.0002 38.8998 34.3002 38.7998 34.5002 38.6998C34.6002 38.6998 34.6002 38.5998 34.6002 38.5998C34.7002 38.4998 34.7002 38.4998 34.7002 38.3998V38.2998C34.8002 37.9998 34.8002 37.6998 34.7002 37.4998C34.6002 37.2998 34.5002 37.0998 34.3002 36.9998C34.2002 36.9998 34.2002 36.8998 34.1002 36.8998L24.2002 32.8998C23.8002 32.6998 23.6002 32.2998 23.8002 31.8998C23.9002 31.5998 24.2002 31.3998 24.5002 31.3998C24.6002 31.3998 24.7002 31.3998 24.8002 31.4998L33.0002 34.7998V34.8998L33.1002 34.7998V34.8998L33.3002 34.7998L33.2002 34.8998L33.4002 34.7998C33.4002 34.7998 33.4002 34.7998 33.5002 34.7998C33.6002 34.7998 33.7002 34.7998 33.8002 34.6998C34.1002 34.5998 34.3002 34.3998 34.4002 34.0998C34.5002 33.7998 34.5002 33.5998 34.4002 33.2998C34.3002 32.9998 34.1002 32.7998 33.8002 32.6998L21.4002 27.5998C21.1002 27.4998 20.9002 27.1998 20.9002 26.8998C20.9002 26.5998 21.1002 26.2998 21.4002 26.1998L28.2002 24.0998C28.5002 23.9998 28.7002 23.7998 28.8002 23.4998C28.8002 23.3998 28.8002 23.1998 28.8002 23.0998C28.7002 22.7998 28.4002 22.4998 28.0002 22.4998H27.9002L27.6002 22.5998C24.7002 23.1998 22.1002 23.7998 19.9002 24.1998L19.0002 24.6998L18.8002 24.5998V24.7998L17.9002 24.8998C16.4002 25.1998 15.0002 25.3998 14.0002 25.5998C12.8002 25.7998 11.9002 25.8998 11.2002 25.8998C11.1002 25.8998 11.0002 25.8998 10.9002 25.8998C10.5002 25.7998 10.4002 25.6998 10.2002 25.6998ZM1.50019 32.8998L5.00019 34.3998L9.50019 23.4998L5.90019 21.9998L1.50019 32.8998ZM26.7002 15.3998C27.0002 15.3998 27.2002 15.4998 27.4002 15.6998L30.5002 18.4998L30.7002 8.9998H22.9002V18.3998L26.1002 15.6998C26.2002 15.4998 26.5002 15.3998 26.7002 15.3998ZM23.0002 7.39981L30.4002 7.4998L29.6002 3.7998H23.9002L23.0002 7.39981ZM7.30019 7.39981L21.5002 7.4998L22.4002 3.7998L8.70019 3.6998L7.30019 7.39981Z" fill="#848488"/>
</g>
<defs>
<clipPath id="clip0">
<rect width="48" height="48" fill="white"/>
</clipPath>
</defs>
</svg>
