<svg width="48" height="48" viewBox="0 0 48 48" fill="none" xmlns="http://www.w3.org/2000/svg">
<path d="M42.6382 3.10631H41.7882V2.25628C41.7882 1.01213 40.776 0 39.5319 0C38.2877 0 37.2756 1.01213 37.2756 2.25628V3.10631H34.0225V2.25628C34.0226 1.01213 33.0103 0 31.7663 0C30.5222 0 29.51 1.01213 29.51 2.25628V3.10631H26.2569V2.25628C26.2569 1.01213 25.2447 0 24.0006 0C22.7564 0 21.7443 1.01213 21.7443 2.25628V3.10631H18.4912V2.25628C18.4913 1.01213 17.4791 0 16.235 0C14.9908 0 13.9787 1.01213 13.9787 2.25628V3.10631H13.1286C11.0281 3.10631 9.31934 4.81519 9.31934 6.91556V24.1222L7.5994 22.4022C6.71965 21.5225 5.28828 21.5226 4.40853 22.4022L2.21206 24.5987C1.33231 25.4783 1.33231 26.9098 2.21206 27.7895L9.31925 34.8967V44.1907C9.31925 46.2911 11.0281 48 13.1285 48H37.0475C37.4358 48 37.7506 47.6852 37.7506 47.2969C37.7506 46.9086 37.4358 46.5938 37.0475 46.5938H13.1286C11.8035 46.5938 10.7256 45.5157 10.7256 44.1907V36.3029L16.4616 42.0389C16.4783 42.0556 16.4957 42.0713 16.5138 42.0861C16.5261 42.0961 16.5388 42.105 16.5516 42.1141C16.5576 42.1183 16.5632 42.1231 16.5693 42.1271C16.5854 42.1379 16.602 42.1475 16.6188 42.1567C16.622 42.1585 16.625 42.1606 16.6282 42.1623C16.6459 42.1717 16.664 42.18 16.6822 42.1878C16.6849 42.1889 16.6874 42.1904 16.6902 42.1915C16.708 42.1988 16.726 42.205 16.7441 42.2108C16.7478 42.2121 16.7514 42.2136 16.7551 42.2147C16.7722 42.2198 16.7894 42.2239 16.8067 42.2276C16.8118 42.2288 16.8168 42.2303 16.822 42.2314C16.8387 42.2347 16.8556 42.2368 16.8726 42.2389C16.8785 42.2396 16.8842 42.2408 16.8901 42.2414C16.9129 42.2437 16.9359 42.2448 16.9587 42.2448H21.0604L21.9527 43.1371C22.09 43.2743 22.27 43.3431 22.4499 43.3431C22.6298 43.3431 22.8098 43.2743 22.947 43.1371C23.2216 42.8625 23.2216 42.4173 22.947 42.1427L22.0547 41.2505V37.149C22.0547 37.1259 22.0536 37.103 22.0513 37.08C22.0509 37.0749 22.0497 37.0701 22.0492 37.065C22.047 37.0472 22.0447 37.0295 22.0412 37.0118C22.0403 37.0073 22.039 37.0029 22.0379 36.9984C22.034 36.9805 22.0298 36.9626 22.0245 36.945C22.0236 36.9418 22.0223 36.9388 22.0212 36.9356C22.0153 36.917 22.0089 36.8984 22.0014 36.8801C22.0005 36.8782 21.9995 36.8763 21.9987 36.8743C21.9906 36.8553 21.9819 36.8364 21.9721 36.8181C21.9708 36.8156 21.9693 36.8135 21.968 36.811C21.9583 36.7934 21.9482 36.7761 21.937 36.7592C21.9335 36.7539 21.9294 36.7491 21.9257 36.7439C21.9162 36.7303 21.9066 36.7167 21.896 36.7037C21.8812 36.6856 21.8655 36.6682 21.8488 36.6515L16.1127 30.9154H40.3084C40.6967 30.9154 41.0115 30.6006 41.0115 30.2122C41.0115 29.8239 40.6967 29.5091 40.3084 29.5091H15.4584C15.2518 29.5091 15.0666 29.5988 14.938 29.7406L10.7255 25.5281V12.2782H45.0412V17.0736C45.0412 17.4619 45.356 17.7767 45.7443 17.7767C46.1326 17.7767 46.4474 17.4619 46.4474 17.0736V6.91556C46.4475 4.81509 44.7387 3.10631 42.6382 3.10631ZM20.6486 40.8386H18.6563L20.6486 38.8463V40.8386ZM5.90009 29.4888L7.10225 28.2867L18.1609 39.3454L16.9588 40.5474L5.90009 29.4888ZM19.1552 38.351L8.09656 27.2923L9.29871 26.0902L20.3574 37.1489L19.1552 38.351ZM3.20646 25.5931L5.40293 23.3966C5.73434 23.0652 6.27368 23.0651 6.60509 23.3966L8.3044 25.0959L4.90578 28.4944L3.20656 26.7952C2.87506 26.4638 2.87506 25.9245 3.20646 25.5931ZM39.5319 1.40625C40.0006 1.40625 40.3819 1.78753 40.3819 2.25628V5.3625C40.3819 5.83125 40.0006 6.21253 39.5319 6.21253C39.0631 6.21253 38.6818 5.83125 38.6818 5.3625V3.81038C38.6818 3.81009 38.6818 3.80981 38.6818 3.80944C38.6818 3.80906 38.6818 3.80888 38.6818 3.8085V2.25628C38.6819 1.78753 39.0632 1.40625 39.5319 1.40625ZM31.7663 1.40625C32.235 1.40625 32.6163 1.78753 32.6163 2.25628V5.3625C32.6163 5.83125 32.235 6.21253 31.7663 6.21253C31.2975 6.21253 30.9162 5.83125 30.9162 5.3625V3.81038C30.9162 3.81009 30.9162 3.80981 30.9162 3.80944C30.9162 3.80906 30.9162 3.80888 30.9162 3.8085V2.25628C30.9162 1.78753 31.2975 1.40625 31.7663 1.40625ZM23.1507 2.25628C23.1507 1.78753 23.5319 1.40625 24.0007 1.40625C24.4694 1.40625 24.8507 1.78753 24.8507 2.25628V3.8085V3.80944C24.8507 3.80944 24.8507 3.81 24.8507 3.81038V5.3625C24.8507 5.83125 24.4694 6.21253 24.0007 6.21253C23.532 6.21253 23.1507 5.83125 23.1507 5.3625V2.25628ZM16.235 1.40625C16.7037 1.40625 17.085 1.78753 17.085 2.25628V5.3625C17.085 5.83125 16.7037 6.21253 16.235 6.21253C15.7662 6.21253 15.385 5.83125 15.385 5.3625V2.25628C15.385 1.78753 15.7662 1.40625 16.235 1.40625ZM10.7256 10.8719V6.91556C10.7256 5.5905 11.8036 4.51256 13.1286 4.51256H13.9787V5.3625C13.9787 6.60666 14.9908 7.61878 16.235 7.61878C17.4791 7.61878 18.4913 6.60666 18.4913 5.3625V4.51256H21.7444V5.3625C21.7444 6.60666 22.7565 7.61878 24.0007 7.61878C25.2448 7.61878 26.257 6.60666 26.257 5.3625V4.51256H29.5101V5.3625C29.5101 6.60666 30.5222 7.61878 31.7664 7.61878C33.0105 7.61878 34.0227 6.60666 34.0227 5.3625V4.51256H37.2758V5.3625C37.2758 6.60666 38.2879 7.61878 39.5321 7.61878C40.7762 7.61878 41.7883 6.60666 41.7883 5.3625V4.51256H42.6384C43.9634 4.51256 45.0415 5.59059 45.0415 6.91556V10.8719H10.7256Z" fill="#8DBE22"/>
<path d="M45.7445 19.1831C45.3562 19.1831 45.0414 19.4979 45.0414 19.8862V44.1907C45.0414 45.5158 43.9634 46.5938 42.6383 46.5938H39.8601C39.4718 46.5938 39.157 46.9086 39.157 47.2969C39.157 47.6853 39.4718 48.0001 39.8601 48.0001H42.6383C44.7388 48.0001 46.4476 46.2912 46.4476 44.1907V19.8862C46.4476 19.4979 46.1328 19.1831 45.7445 19.1831Z" fill="#8DBE22"/>
<path d="M15.4583 16.9375H40.3083C40.6966 16.9375 41.0114 16.6227 41.0114 16.2344C41.0114 15.8461 40.6966 15.5312 40.3083 15.5312H15.4583C15.0699 15.5312 14.7551 15.8461 14.7551 16.2344C14.7551 16.6227 15.0699 16.9375 15.4583 16.9375Z" fill="#8DBE22"/>
<path d="M15.4583 21.5969H40.3083C40.6966 21.5969 41.0114 21.2821 41.0114 20.8938C41.0114 20.5055 40.6966 20.1907 40.3083 20.1907H15.4583C15.0699 20.1907 14.7551 20.5055 14.7551 20.8938C14.7551 21.2821 15.0699 21.5969 15.4583 21.5969Z" fill="#8DBE22"/>
<path d="M15.4583 26.2563H40.3083C40.6966 26.2563 41.0114 25.9415 41.0114 25.5532C41.0114 25.1649 40.6966 24.8501 40.3083 24.8501H15.4583C15.0699 24.8501 14.7551 25.1649 14.7551 25.5532C14.7551 25.9415 15.0699 26.2563 15.4583 26.2563Z" fill="#8DBE22"/>
<path d="M41.0117 34.8718C41.0117 34.4835 40.6969 34.1687 40.3085 34.1687H24.0007C23.6124 34.1687 23.2976 34.4835 23.2976 34.8718C23.2976 35.2601 23.6124 35.575 24.0007 35.575H40.3085C40.6969 35.575 41.0117 35.2601 41.0117 34.8718Z" fill="#8DBE22"/>
</svg>
