<svg width="24" height="24" viewBox="0 0 24 24" fill="none" xmlns="http://www.w3.org/2000/svg">
<path fill-rule="evenodd" clip-rule="evenodd" d="M5.84047 9.85637C7.62779 13.7483 10.8083 16.8424 14.762 18.519L14.7745 18.5243L15.5383 18.8648C16.511 19.2981 17.6542 18.9903 18.2778 18.1273L19.5522 16.3635C19.63 16.2558 19.6099 16.106 19.5065 16.0225L17.2818 14.2277C17.1712 14.1385 17.0085 14.1593 16.9239 14.2734L16.0581 15.4418C15.8478 15.7256 15.468 15.8242 15.1463 15.6786C12.1899 14.3406 9.81416 11.9649 8.47622 9.00852C8.33061 8.68676 8.42921 8.30701 8.71296 8.09673L9.88134 7.23087C9.9955 7.14626 10.0163 6.98364 9.92706 6.87304L8.13202 4.648C8.04859 4.54458 7.89884 4.5245 7.79111 4.60227L6.01782 5.88243C5.14903 6.50961 4.84307 7.66246 5.28654 8.63791L5.83988 9.85507C5.84008 9.85551 5.84027 9.85594 5.84047 9.85637ZM14.1701 19.8973C9.8741 18.0737 6.41874 14.7107 4.4767 10.481L4.47553 10.4784L3.92102 9.2587C3.18192 7.63295 3.69185 5.71154 5.13983 4.66623L6.91313 3.38607C7.66725 2.84166 8.71548 2.98227 9.29947 3.70616L11.0945 5.93121C11.7191 6.70537 11.5736 7.84377 10.7744 8.43601L10.1049 8.93216C11.2359 11.1266 13.0282 12.9189 15.2226 14.0499L15.7188 13.3803C16.311 12.5812 17.4494 12.4357 18.2236 13.0603L20.4483 14.8551C21.1724 15.4392 21.3129 16.4879 20.768 17.242L19.4936 19.0057C18.4543 20.4442 16.5489 20.9572 14.9279 20.2349L14.1701 19.8973Z" fill="#8DBE22"/>
</svg>
