<svg width="38" height="38" viewBox="0 0 38 38" fill="none" xmlns="http://www.w3.org/2000/svg">
<g clip-path="url(#clip0)">
<path d="M37.993 0.717206C37.9872 0.673414 37.9806 0.631275 37.9673 0.588309C37.9533 0.541211 37.9343 0.498246 37.9128 0.454453C37.9012 0.430492 37.8971 0.404877 37.8831 0.381742C37.874 0.366869 37.8591 0.356954 37.8484 0.342907C37.8211 0.304899 37.7889 0.271848 37.755 0.237971C37.7211 0.204094 37.6872 0.172696 37.6484 0.145429C37.6344 0.135514 37.6253 0.121468 37.6112 0.113205C37.5881 0.0991585 37.5625 0.0958534 37.5385 0.0842857C37.4931 0.0619765 37.4484 0.0429723 37.4005 0.0289258C37.36 0.0181843 37.3204 0.0124004 37.2791 0.00744283C37.2303 0.00165896 37.1832 -0.00164611 37.1345 0.000832693C37.089 0.00331149 37.0452 0.0124004 37.0006 0.0231419C36.9725 0.029752 36.9436 0.0272732 36.9155 0.0371885L0.559777 12.4312C0.230923 12.5419 0.00700487 12.8485 0.000394735 13.1963C-0.0062154 13.5442 0.205309 13.859 0.530858 13.9838L17.5164 20.5104L24.8561 37.5018C24.9875 37.805 25.2866 38 25.6147 38C25.6287 38 25.6419 38 25.656 37.9992C26.0005 37.9819 26.2972 37.753 26.4021 37.4249L37.9698 1.0692C37.9781 1.04358 37.9756 1.01714 37.9806 0.990701C37.9905 0.94443 37.9979 0.899811 37.9996 0.852714C38.0012 0.806443 37.9987 0.762651 37.993 0.717206ZM3.25093 13.2583L34.0847 2.74652L17.932 18.8992L3.25093 13.2583ZM25.4965 34.8181L19.1177 20.051L35.3646 3.80331L25.4965 34.8181Z" fill="#8DBE22"/>
<path d="M12.9786 25.0221C12.6555 24.699 12.1333 24.699 11.8103 25.0221L0.242547 36.5898C-0.0805234 36.9129 -0.0805234 37.4351 0.242547 37.7581C0.403669 37.9193 0.615193 38.0002 0.826717 38.0002C1.03824 38.0002 1.24977 37.9193 1.41089 37.7581L12.9786 26.1904C13.3017 25.8674 13.3017 25.3452 12.9786 25.0221Z" fill="#8DBE22"/>
<path d="M15.1153 30.8058L9.33141 36.5896C9.00834 36.9127 9.00834 37.4349 9.33141 37.758C9.49254 37.9191 9.70406 38.0001 9.91558 38.0001C10.1271 38.0001 10.3386 37.9191 10.4998 37.758L16.2836 31.9741C16.6067 31.651 16.6067 31.1288 16.2836 30.8058C15.9605 30.4827 15.4383 30.4827 15.1153 30.8058Z" fill="#8DBE22"/>
<path d="M0.826717 28.9112C1.03824 28.9112 1.24977 28.8302 1.41089 28.6691L7.19475 22.8853C7.51782 22.5622 7.51782 22.04 7.19475 21.7169C6.87168 21.3938 6.34948 21.3938 6.02641 21.7169L0.242547 27.5008C-0.0805234 27.8238 -0.0805234 28.346 0.242547 28.6691C0.403669 28.8302 0.615193 28.9112 0.826717 28.9112Z" fill="#8DBE22"/>
</g>
<defs>
<clipPath id="clip0">
<rect width="38" height="38" fill="white"/>
</clipPath>
</defs>
</svg>
