<svg width="48" height="48" viewBox="0 0 48 48" fill="none" xmlns="http://www.w3.org/2000/svg">
<g clip-path="url(#clip0)">
<path d="M30.3991 0C29.9575 0 29.5991 0.358406 29.5991 0.799967C29.5991 1.24153 29.9575 1.59993 30.3991 1.59993C39.2215 1.59993 46.3991 8.77751 46.3991 17.5999C46.3991 18.0415 46.7575 18.3999 47.1991 18.3999C47.6415 18.3999 47.999 18.0415 47.999 17.5999C47.999 7.89524 40.1039 0 30.3991 0Z" fill="#8DBE22"/>
<path d="M30.3991 4.80005C29.9575 4.80005 29.5991 5.15845 29.5991 5.60002C29.5991 6.04158 29.9575 6.39998 30.3991 6.39998C36.575 6.39998 41.5991 11.4239 41.5991 17.6C41.5991 18.0416 41.9575 18.4 42.3991 18.4C42.8415 18.4 43.199 18.0416 43.199 17.6C43.199 10.5425 37.4574 4.80005 30.3991 4.80005Z" fill="#8DBE22"/>
<path d="M30.3991 9.6001C29.9575 9.6001 29.5991 9.9585 29.5991 10.4001C29.5991 10.8416 29.9575 11.2 30.3991 11.2C33.9279 11.2 36.7991 14.0712 36.7991 17.6C36.7991 18.0416 37.1575 18.4 37.5991 18.4C38.0415 18.4 38.399 18.0416 38.399 17.6C38.399 13.1889 34.8102 9.6001 30.3991 9.6001Z" fill="#8DBE22"/>
<path d="M43.2905 30.02C41.1137 29.7336 38.9673 29.1993 36.9113 28.4336C34.9201 27.6872 32.6577 28.1688 31.1425 29.664L28.6137 32.1872C23.3113 29.0608 18.8817 24.64 15.7481 19.348L18.2785 16.8233C19.7745 15.3137 20.2577 13.0537 19.5097 11.0673C18.7426 9.01455 18.2073 6.87293 17.9193 4.69287C17.5361 1.99044 15.1961 -0.0103658 12.461 4.04049e-05H5.46178C5.29856 4.04049e-05 5.13534 0.00800914 4.97381 0.0224466C3.52012 0.153696 2.20416 0.842476 1.26891 1.96091C0.333755 3.0801 -0.109494 4.49609 0.0233495 5.96084C0.798567 13.2473 3.31856 20.3488 7.30659 26.4928C10.9274 32.1792 15.853 37.0952 21.5449 40.7048C27.6778 44.6744 34.7601 47.1888 42.0425 47.9784C42.2073 47.9928 42.3729 47.9999 42.5393 47.9999C42.544 47.9999 42.5488 47.9999 42.5545 47.9999C45.5689 47.9871 48.0104 45.5295 47.9984 42.5239V35.5488C48.0617 32.7832 46.0424 30.4072 43.2905 30.02ZM46.3985 35.52C46.3985 35.5263 46.3985 35.5336 46.3985 35.5399V42.528C46.4064 44.6544 44.6793 46.3919 42.5489 46.4008C42.4241 46.396 42.3041 46.396 42.1985 46.3863C35.1793 45.6247 28.3377 43.1959 22.4073 39.3575C16.9066 35.8687 12.1514 31.1231 8.65218 25.6271C4.7969 19.6881 2.36334 12.8289 1.61532 5.80409C1.5225 4.77847 1.83535 3.77853 2.49694 2.98728C3.15853 2.19604 4.0889 1.70891 5.11771 1.6161C5.23209 1.60569 5.34656 1.60007 5.46168 1.60007H12.4681C12.4809 1.60007 12.4937 1.60007 12.5065 1.60007C14.4233 1.60007 16.0657 3.0201 16.3337 4.90962C16.6369 7.20162 17.2008 9.4624 18.0112 11.6296C18.5401 13.0344 18.1984 14.6312 17.1448 15.6944L14.1816 18.6512C13.9256 18.9064 13.8728 19.3 14.0512 19.6136C17.4416 25.5656 22.3864 30.5 28.3488 33.8832C28.6624 34.0616 29.0544 34.0072 29.3088 33.7536L32.2688 30.8C33.3384 29.7449 34.9408 29.4049 36.3504 29.9329C38.5199 30.7409 40.7847 31.3049 43.0735 31.6056C45.0176 31.8792 46.4472 33.5616 46.3985 35.52Z" fill="#8DBE22"/>
<path d="M12 3.19995H5.46165C5.39443 3.19995 5.32805 3.20314 5.26168 3.20951C4.44653 3.28311 3.94806 3.74548 3.72409 4.01351C3.54409 4.22867 3.1329 4.81592 3.2049 5.62235C3.50734 8.45997 4.05446 11.2207 4.83287 13.8287C4.93684 14.1751 5.25446 14.4 5.59927 14.4C5.6753 14.4 5.75209 14.3896 5.82887 14.3664C6.25205 14.24 6.4929 13.7944 6.36643 13.3712C5.61605 10.8576 5.08806 8.19363 4.79762 5.46645C4.77924 5.26329 4.91124 5.08807 4.95202 5.03848C5.01765 4.9601 5.16399 4.82492 5.46165 4.80007H11.9984C11.9993 4.80007 11.9993 4.80007 11.9993 4.80007C12.4409 4.80007 12.7993 4.44251 12.7993 4.00086C12.8 3.55911 12.4416 3.19995 12 3.19995Z" fill="#8DBE22"/>
<path d="M43.9992 35.2C43.5576 35.2 43.1992 35.5584 43.1992 35.9999L43.1984 42.5271C43.1992 42.7071 43.1304 42.8767 43.0048 43.003C42.8791 43.1294 42.7127 43.1991 42.5544 43.1998L42.4808 43.1982C39.7472 42.9014 37.1056 42.375 34.6296 41.6334C34.208 41.5062 33.7608 41.7471 33.6336 42.1702C33.5064 42.5934 33.7472 43.039 34.1704 43.1662C36.7393 43.9358 39.4776 44.4815 42.3224 44.7903C42.3881 44.7966 42.5217 44.7998 42.5409 44.7998C43.1465 44.7974 43.7144 44.5598 44.1409 44.1303C44.5673 43.6999 44.8009 43.1287 44.7985 42.5239L44.7992 35.9999C44.7992 35.5584 44.4408 35.2 43.9992 35.2Z" fill="#8DBE22"/>
</g>
<defs>
<clipPath id="clip0">
<rect width="48" height="48" fill="white"/>
</clipPath>
</defs>
</svg>
