<svg width="24" height="24" viewBox="0 0 24 24" fill="none" xmlns="http://www.w3.org/2000/svg">
<path d="M5.39368 11.7354C8.88331 10.1831 11.2103 9.15972 12.3746 8.66526C15.6989 7.2535 16.3897 7.00826 16.8399 7.00008C16.9389 6.99838 17.1603 7.02344 17.3038 7.14226C17.4249 7.24259 17.4582 7.37813 17.4741 7.47325C17.4901 7.56838 17.5099 7.78507 17.4941 7.95439C17.314 9.88699 16.5345 14.5769 16.1379 16.7414C15.9701 17.6573 15.6397 17.9644 15.3199 17.9945C14.6247 18.0598 14.0969 17.5254 13.4236 17.0748C12.37 16.3697 11.7748 15.9307 10.7522 15.2426C9.57031 14.4474 10.3365 14.0104 11.01 13.2961C11.1863 13.1092 14.2491 10.2647 14.3084 10.0067C14.3158 9.97444 14.3227 9.85415 14.2527 9.79063C14.1827 9.72711 14.0794 9.74883 14.0048 9.76611C13.8992 9.79059 12.2161 10.9264 8.95564 13.1736C8.4779 13.5085 8.04518 13.6717 7.65749 13.6632C7.23008 13.6538 6.40792 13.4164 5.79673 13.2136C5.04708 12.9648 4.45127 12.8332 4.50315 12.4107C4.53017 12.1906 4.82702 11.9655 5.39368 11.7354Z" fill="#848488"/>
</svg>
