<svg width="48" height="48" viewBox="0 0 48 48" fill="none" xmlns="http://www.w3.org/2000/svg">
<path d="M24 0C10.7452 0 0 10.7452 0 24C0 37.2548 10.7452 48 24 48C37.2548 48 48 37.2548 48 24C47.985 10.7514 37.2486 0.015 24 0ZM24 46.4C11.6288 46.4 1.6 36.3712 1.6 24C1.6 11.6288 11.6288 1.6 24 1.6C36.3712 1.6 46.4 11.6288 46.4 24C46.3859 36.3653 36.3653 46.3859 24 46.4Z" fill="#848488"/>
<path d="M24 4C12.9543 4 4 12.9543 4 24C4 35.0457 12.9543 44 24 44C35.0457 44 44 35.0457 44 24C43.9877 12.9594 35.0406 4.0123 24 4ZM24 42.4C13.838 42.4 5.6 34.162 5.6 24C5.6 13.838 13.838 5.6 24 5.6C34.162 5.6 42.4 13.838 42.4 24C42.3885 34.1573 34.1573 42.3885 24 42.4Z" fill="#848488"/>
<path d="M24.8002 8H23.2002V9.6H24.8002V8Z" fill="#848488"/>
<path d="M24.8002 38.3999H23.2002V39.9999H24.8002V38.3999Z" fill="#848488"/>
<path d="M16.6909 9.74443L15.3062 10.5442L16.1059 11.9289L17.4907 11.1292L16.6909 9.74443Z" fill="#848488"/>
<path d="M31.8872 36.0667L30.5024 36.8665L31.3022 38.2512L32.6869 37.4514L31.8872 36.0667Z" fill="#848488"/>
<path d="M10.5432 30.5099L9.74316 31.8955L11.1288 32.6955L11.9288 31.3099L10.5432 30.5099Z" fill="#848488"/>
<path d="M36.8674 30.5099L36.0674 31.8955L37.453 32.6955L38.253 31.3099L36.8674 30.5099Z" fill="#848488"/>
<path d="M9.6 23.2H8V24.8H9.6V23.2Z" fill="#848488"/>
<path d="M39.9999 23.2H38.3999V24.8H39.9999V23.2Z" fill="#848488"/>
<path d="M11.1289 15.3076L9.74316 16.1074L10.543 17.4932L11.9288 16.6934L11.1289 15.3076Z" fill="#848488"/>
<path d="M37.453 15.3074L36.0674 16.1074L36.8674 17.493L38.253 16.693L37.453 15.3074Z" fill="#848488"/>
<path d="M16.102 36.0696L15.3022 37.4543L16.687 38.2541L17.4868 36.8694L16.102 36.0696Z" fill="#848488"/>
<path d="M31.3061 9.74586L30.5063 11.1306L31.8911 11.9304L32.6908 10.5456L31.3061 9.74586Z" fill="#848488"/>
<path d="M23.1999 11.2V23.5472L15.5879 28.1144L16.4119 29.4855L24.4119 24.6856C24.6526 24.541 24.7999 24.2808 24.7999 24V11.2H23.1999Z" fill="#848488"/>
</svg>
