<svg width="24" height="24" viewBox="0 0 24 24" fill="none" xmlns="http://www.w3.org/2000/svg">
<path fill-rule="evenodd" clip-rule="evenodd" d="M19.6328 8.26742C19.7441 7.89659 19.6328 7.62402 19.1034 7.62402H17.353C16.9079 7.62402 16.7029 7.85945 16.5916 8.11914C16.5916 8.11914 15.7014 10.2888 14.4404 11.6981C14.0324 12.106 13.847 12.2357 13.6244 12.2357C13.5132 12.2357 13.3521 12.106 13.3521 11.7352V8.26742C13.3521 7.82232 13.223 7.62402 12.852 7.62402H10.1014C9.82332 7.62402 9.65604 7.83057 9.65604 8.02637C9.65604 8.44834 10.2864 8.54561 10.3514 9.73238V12.3101C10.3514 12.8752 10.2494 12.9777 10.0269 12.9777C9.43349 12.9777 7.99016 10.7982 7.13396 8.30455C6.96617 7.81982 6.79789 7.62402 6.35053 7.62402H4.60014C4.10002 7.62402 4 7.85945 4 8.11914C4 8.58274 4.59351 10.8823 6.76313 13.9235C8.20971 16.0002 10.2474 17.1262 12.1018 17.1262C13.2146 17.1262 13.3521 16.8761 13.3521 16.4454V14.8757C13.3521 14.3756 13.4575 14.2758 13.8097 14.2758C14.0695 14.2758 14.5145 14.4056 15.5531 15.4069C16.7399 16.5936 16.9354 17.1262 17.6031 17.1262H19.3535C19.8536 17.1262 20.1037 16.8761 19.9594 16.3826C19.8016 15.8908 19.235 15.1774 18.483 14.3314C18.0751 13.8492 17.4631 13.3299 17.2778 13.0704C17.0181 12.7366 17.0922 12.5883 17.2778 12.2917C17.2778 12.2917 19.4103 9.28753 19.6328 8.26755V8.26742Z" fill="#848488"/>
</svg>
