<svg width="24" height="24" viewBox="0 0 24 24" fill="none" xmlns="http://www.w3.org/2000/svg">
<path d="M17.3752 6.60573C16.0887 5.28141 14.3103 4.5625 12.4941 4.5625C8.63466 4.5625 5.53198 7.70302 5.56982 11.5246C5.56982 12.7354 5.91035 13.9084 6.47792 14.9678L5.49414 18.5624L9.16439 17.6165C10.186 18.184 11.3211 18.4489 12.4563 18.4489C16.2779 18.4489 19.3805 15.3084 19.3805 11.4868C19.3805 9.63274 18.6616 7.89221 17.3752 6.60573ZM12.4941 17.2759C11.4725 17.2759 10.4509 17.0111 9.5806 16.4813L9.35358 16.3678L7.159 16.9354L7.72656 14.7787L7.57521 14.5516C5.91035 11.8652 6.70494 8.30842 9.42925 6.64357C12.1536 4.97871 15.6725 5.7733 17.3373 8.49761C19.0022 11.2219 18.2076 14.7408 15.4833 16.4057C14.613 16.9732 13.5536 17.2759 12.4941 17.2759ZM15.8238 13.076L15.4076 12.8868C15.4076 12.8868 14.8022 12.6219 14.4238 12.4327C14.386 12.4327 14.3481 12.3949 14.3103 12.3949C14.1968 12.3949 14.1211 12.4327 14.0454 12.4706C14.0454 12.4706 14.0076 12.5084 13.4779 13.1138C13.44 13.1895 13.3644 13.2273 13.2887 13.2273H13.2509C13.213 13.2273 13.1373 13.1895 13.0995 13.1516L12.9103 13.076C12.4941 12.8868 12.1157 12.6597 11.813 12.357C11.7373 12.2814 11.6238 12.2057 11.5482 12.13C11.2833 11.8652 11.0184 11.5625 10.8292 11.2219L10.7914 11.1462C10.7536 11.1084 10.7536 11.0706 10.7157 10.9949C10.7157 10.9192 10.7157 10.8435 10.7536 10.8057C10.7536 10.8057 10.9049 10.6165 11.0184 10.503C11.0941 10.4273 11.1319 10.3138 11.2076 10.2381C11.2833 10.1246 11.3211 9.97328 11.2833 9.85977C11.2455 9.67058 10.7914 8.64896 10.6779 8.42194C10.6022 8.30842 10.5265 8.27059 10.413 8.23275H10.2995C10.2238 8.23275 10.1103 8.23275 9.99682 8.23275C9.92114 8.23275 9.84547 8.27059 9.76979 8.27059L9.73195 8.30842C9.65628 8.34626 9.5806 8.42194 9.50493 8.45977C9.42925 8.53545 9.39142 8.61112 9.31574 8.6868C9.05088 9.02734 8.89953 9.44355 8.89953 9.85977C8.89953 10.1625 8.9752 10.4652 9.08871 10.73L9.12655 10.8435C9.46709 11.5625 9.92114 12.2057 10.5265 12.7733L10.6779 12.9246C10.7914 13.0381 10.9049 13.1138 10.9806 13.2273C11.7752 13.9084 12.6833 14.4003 13.7049 14.6651C13.8184 14.703 13.9698 14.703 14.0833 14.7408C14.1968 14.7408 14.3481 14.7408 14.4617 14.7408C14.6508 14.7408 14.8779 14.6651 15.0292 14.5895C15.1427 14.5138 15.2184 14.5138 15.2941 14.4381L15.3698 14.3624C15.4454 14.2868 15.5211 14.2489 15.5968 14.1733C15.6725 14.0976 15.7481 14.0219 15.786 13.9462C15.8616 13.7949 15.8995 13.6057 15.9373 13.4165C15.9373 13.3408 15.9373 13.2273 15.9373 13.1516C15.9373 13.1516 15.8995 13.1138 15.8238 13.076Z" fill="#848488"/>
</svg>
